<svg height="464pt" viewBox="0 0 464 464" width="464pt" xmlns="http://www.w3.org/2000/svg"><path d="m408.984375 464c17.128906-27.953125 27.015625-76.800781 27.015625-112h-416c0 35.199219 9.886719 84.046875 27.015625 112zm0 0" fill="#dc4d41"/><path d="m40 336h384c8.835938 0 16 7.164062 16 16s-7.164062 16-16 16h-384c-8.835938 0-16-7.164062-16-16s7.164062-16 16-16zm0 0" fill="#a83b32"/><path d="m424 328h-384c-13.253906 0-24 10.746094-24 24s10.746094 24 24 24h384c13.253906 0 24-10.746094 24-24s-10.746094-24-24-24zm-281.191406 16h38.398437l20 16h-38.398437zm-5.601563 16h-38.398437l-20-16h38.398437zm69.601563-16h38.398437l20 16h-38.398437zm64 0h38.398437l20 16h-38.398437zm64 0h38.398437l20 16h-38.398437zm-302.808594 8c0-4.417969 3.582031-8 8-8h13.191406l20 16h-33.191406c-4.417969 0-8-3.582031-8-8zm392 8h-5.191406l-20-16h25.191406c4.417969 0 8 3.582031 8 8s-3.582031 8-8 8zm0 0" fill="#b94137"/><path d="m24 164.425781h328v16h-328zm0 0" fill="#b9b9b9"/><path d="m112 44.425781h328v16h-328zm0 0" fill="#b9b9b9"/><path d="m168 196.425781-40-8h-10.664062l2.664062-32h8l40-8zm0 0" fill="#6b9777"/><path d="m232 140.425781h24c-10.074219 20.144531-10.074219 43.855469 0 64h-24c-17.671875 0-32-14.328125-32-32 0-17.675781 14.328125-32 32-32zm0 0" fill="#e4e4e2"/><path d="m313.359375 138.398438-.96875 5.824218c-2.628906 15.757813-2.628906 31.84375 0 47.601563l.96875 5.824219c.753906 4.570312-.539063 9.246093-3.535156 12.777343-3 3.535157-7.398438 5.574219-12.03125 5.574219-7.714844 0-14.296875-5.574219-15.570313-13.183594l-1.832031-11.015625c-2.628906-15.757812-2.628906-31.84375 0-47.601562l1.832031-11.015625c1.273438-7.609375 7.855469-13.183594 15.570313-13.183594 4.644531 0 9.050781 2.042969 12.050781 5.589844 3 3.542968 4.285156 8.230468 3.515625 12.808594zm0 0" fill="#fd9226"/><path d="m104 132.425781c13.253906 0 24 10.742188 24 24v32c0 13.253907-10.746094 24-24 24s-24-10.746093-24-24v-32c0-13.257812 10.746094-24 24-24zm0 0" fill="#5e8569"/><path d="m48 172.425781c0 13.253907-10.746094 24-24 24s-24-10.746093-24-24c0-13.257812 10.746094-24 24-24s24 10.742188 24 24zm0 0" fill="#fd7422"/><path d="m352 148.425781h88c13.253906 0 24 10.742188 24 24 0 13.253907-10.746094 24-24 24h-88zm0 0" fill="#c17450"/><path d="m296 76.425781 40-8 12.070312-2.394531-4.070312-26.03125-8-3.574219-40-8zm0 0" fill="#a88e74"/><path d="m232 20.425781h-24c10.074219 20.144531 10.074219 43.855469 0 64h24c17.671875 0 32-14.328125 32-32 0-17.675781-14.328125-32-32-32zm0 0" fill="#da922a"/><path d="m150.640625 18.398438.96875 5.824218c2.628906 15.757813 2.628906 31.84375 0 47.601563l-.96875 5.824219c-.753906 4.570312.539063 9.246093 3.535156 12.777343 3 3.535157 7.398438 5.574219 12.03125 5.574219 7.714844 0 14.296875-5.574219 15.570313-13.183594l1.832031-11.015625c2.628906-15.757812 2.628906-31.84375 0-47.601562l-1.832031-11.015625c-1.273438-7.609375-7.855469-13.183594-15.570313-13.183594-4.644531 0-9.050781 2.042969-12.050781 5.589844-3 3.542968-4.285156 8.230468-3.515625 12.808594zm0 0" fill="#b6534f"/><path d="m360 92.425781c-13.253906 0-24-10.746093-24-24v-32c0-13.257812 10.746094-24 24-24s24 10.742188 24 24v32c0 13.253907-10.746094 24-24 24zm0 0" fill="#9a826a"/><path d="m464 52.425781c0 13.253907-10.746094 24-24 24s-24-10.746093-24-24c0-13.257812 10.746094-24 24-24s24 10.742188 24 24zm0 0" fill="#f55648"/><path d="m112 76.425781h-88c-13.253906 0-24-10.746093-24-24 0-13.257812 10.746094-24 24-24h88zm0 0" fill="#8f563b"/><path d="m48 248h16v16h-16zm0 0" fill="#ee8a24"/><path d="m96 264h16v48h-16zm0 0" fill="#fd9226"/><path d="m48 280h16v32h-16zm0 0" fill="#ee8a24"/><path d="m96 232h16v16h-16zm0 0" fill="#fd9226"/><path d="m144 248h16v16h-16zm0 0" fill="#ee8a24"/><path d="m192 264h16v48h-16zm0 0" fill="#fd9226"/><path d="m144 280h16v32h-16zm0 0" fill="#ee8a24"/><path d="m192 232h16v16h-16zm0 0" fill="#fd9226"/><path d="m240 248h16v16h-16zm0 0" fill="#ee8a24"/><path d="m288 264h16v48h-16zm0 0" fill="#fd9226"/><path d="m240 280h16v32h-16zm0 0" fill="#ee8a24"/><path d="m288 232h16v16h-16zm0 0" fill="#fd9226"/><path d="m336 248h16v16h-16zm0 0" fill="#ee8a24"/><path d="m384 264h16v48h-16zm0 0" fill="#fd9226"/><path d="m336 280h16v32h-16zm0 0" fill="#ee8a24"/><path d="m384 232h16v16h-16zm0 0" fill="#fd9226"/><g fill="#ea5245"><path d="m432 395.328125v-3.328125h-80v16h77.496094c.902344-4.207031 1.777344-8.441406 2.503906-12.671875zm0 0"/><path d="m320 392h16v16h-16zm0 0"/></g></svg>