<svg height="404pt" viewBox="-2 0 404 404.82984" width="404pt" xmlns="http://www.w3.org/2000/svg"><path d="m352.421875 108.828125h-64v-48h-256v276.691406c0 2.121094-.84375 4.15625-2.34375 5.65625l-8.96875 8.964844c-3 3-4.6875 7.070313-4.6875 11.3125v25.375c0 8.839844 7.164063 16 16 16h256c8.835937 0 16-7.160156 16-16v-25.375c-.003906-4.242187-1.6875-8.3125-4.6875-11.3125l-8.96875-8.964844c-1.5-1.5-2.34375-3.535156-2.34375-5.65625v-28.691406h64c26.507813 0 48-21.488281 48-48v-104c0-26.507813-21.492187-48-48-48zm0 152h-64v-104h64zm0 0" fill="#ebebeb"/><path d="m64.421875 60.828125h192v280c0 8.839844-7.164063 16-16 16h-160c-8.835937 0-16-7.160156-16-16zm0 0" fill="#fbb540"/><path d="m64.421875 60.828125h192v48h-192zm0 0" fill="#eee1b5"/><path d="m288.421875 60.828125c-20.320313-30.476563-52.894531-50.605469-89.242187-55.148437l-21.832032-2.730469c-32.484375-4.0625-65.355468-3.925781-97.808594.402343l-22.886718 3.078126c-28.65625 3.820312-51.464844 25.886718-56.230469 54.398437v118.28125c-.3515625 21.023437 15.203125 38.933594 36.070313 41.527344 11.238281 1.109375 22.421874-2.582031 30.789062-10.164063 8.367188-7.585937 13.140625-18.351562 13.140625-29.644531v-26.519531c.007813-2.679688 1.542969-5.125 3.960937-6.289063 2.414063-1.167969 5.285157-.851562 7.390626.808594 8.570312 5.699219 18.742187 8.503906 29.023437 8 21.945313-.203125 39.625-18.054687 39.625-40v38.640625c-.289063 13.117188 9.644531 24.207031 22.710937 25.359375 6.585938.355469 13.027344-2.015625 17.808594-6.554687 4.785156-4.539063 7.488282-10.847657 7.480469-17.445313v-96zm0 0" fill="#fbedbf"/><g fill="#ea9d2d"><path d="m192.421875 212.828125h16v16h-16zm0 0"/><path d="m216.421875 252.828125h16v16h-16zm0 0"/><path d="m168.421875 276.828125h16v16h-16zm0 0"/><path d="m184.421875 316.828125h16v16h-16zm0 0"/><path d="m96.421875 300.828125h16v16h-16zm0 0"/><path d="m88.421875 220.828125h16v16h-16zm0 0"/><path d="m120.421875 252.828125h16v16h-16zm0 0"/></g><path d="m288.421875 108.828125h16v48h-16zm0 0" fill="#e4e4e2"/><path d="m288.421875 260.828125h16v48h-16zm0 0" fill="#e4e4e2"/></svg>