<svg height="464pt" viewBox="-96 0 464 464" width="464pt" xmlns="http://www.w3.org/2000/svg"><path d="m32 0h208c17.671875 0 32 14.328125 32 32v400c0 17.671875-14.328125 32-32 32h-208c-17.671875 0-32-14.328125-32-32v-400c0-17.671875 14.328125-32 32-32zm0 0" fill="#ebebeb"/><path d="m0 32h272v368h-272zm0 0" fill="#41dfd0"/><path d="m26.347656 141.660156 11.3125-11.316406 16 16-11.316406 11.3125zm0 0" fill="#6b9777"/><path d="m104 240-48-72h96zm0 0" fill="#c0f5f9"/><path d="m72 160c0 8.835938-7.164062 16-16 16s-16-7.164062-16-16 7.164062-16 16-16 16 7.164062 16 16zm0 0" fill="#dc4d41"/><path d="m96 224h16v40h-16zm0 0" fill="#6cbae5"/><path d="m96 256h16v8h-16zm0 0" fill="#4799cf"/><path d="m224 168h-16v-32c0-2.675781 1.335938-5.171875 3.558594-6.65625l24-16 8.882812 13.3125-20.441406 13.625zm0 0" fill="#ebebeb"/><path d="m80.054688 312 24-16h32v24h40l23.800781-23.800781c4.765625-4.769531 12.238281-5.511719 17.847656-1.765625 3.527344 2.347656 5.808594 6.15625 6.226563 10.375.417968 4.214844-1.078126 8.394531-4.074219 11.390625l-22.710938 22.710937c-13.503906 13.503906-31.816406 21.089844-50.914062 21.089844h-66.175781zm0 0" fill="#fdc9a6"/><path d="m112.054688 296h36c6.628906 0 12 5.371094 12 12s-5.371094 12-12 12h-36zm0 0" fill="#fdc9a6"/><path d="m47.945312 312h32.054688v48h-32.054688zm0 0" fill="#277baa"/><g fill="#36c5bf"><path d="m81.871094 107.136719-12.039063-10.542969c15.328125-17.59375 37.035157-28.355469 60.316407-29.90625s46.222656 6.238281 63.746093 21.640625l-10.535156 12c-14.335937-12.605469-33.105469-18.976563-52.152344-17.707031-19.046875 1.273437-36.800781 10.082031-49.335937 24.484375zm0 0"/><path d="m130.023438 149.273438-12-10.546876c8.839843-9.675781 23.738281-10.664062 33.777343-2.238281l-10.554687 12c-1.566406-1.421875-3.648438-2.144531-5.757813-2.003906-2.113281.144531-4.078125 1.140625-5.441406 2.761719zm0 0"/><path d="m109.34375 124.726562-10.695312-11.925781c21.039062-18.945312 52.929687-19.136719 74.199218-.449219l-10.535156 12.039063c-15.347656-12.902344-37.789062-12.757813-52.96875.335937zm0 0"/></g><path d="m152 432c0 8.835938-7.164062 16-16 16s-16-7.164062-16-16 7.164062-16 16-16 16 7.164062 16 16zm0 0" fill="#dbdbdb"/><path d="m77.335938 200 26.664062 40 26.664062-40zm0 0" fill="#6cbae5"/><path d="m184 160h48v104h-48zm0 0" fill="#f55648"/><path d="m184 256h48v8h-48zm0 0" fill="#c7463b"/><path d="m232 224-48 8v-32l48-8zm0 0" fill="#fd9226"/><path d="m232 296h-168l-8-32h184zm0 0" fill="#ebebeb"/><path d="m208 152h16v8h-16zm0 0" fill="#dbdbdb"/><path d="m62 288 2 8h168l2-8zm0 0" fill="#e0e0e0"/></svg>