<svg height="480pt" viewBox="0 0 480 480" width="480pt" xmlns="http://www.w3.org/2000/svg"><path d="m286.023438 32.007812c0 13.253907-10.746094 24-24 24-13.253907 0-24-10.746093-24-24 0-13.253906 10.746093-24 24-24 13.253906 0 24 10.746094 24 24zm0 0" fill="#428dc5"/><path d="m24 232h40v32h-40c-8.835938 0-16-7.164062-16-16s7.164062-16 16-16zm0 0" fill="#a8a8a8"/><path d="m64 264h-16v-32h24zm0 0" fill="#878787"/><path d="m456 264h-40v-32h40c8.835938 0 16 7.164062 16 16s-7.164062 16-16 16zm0 0" fill="#a8a8a8"/><path d="m432 264h-16l-8-32h24zm0 0" fill="#878787"/><path d="m240 216c59.015625.550781 117.882812 5.980469 176 16.238281v108c0 53.019531-42.980469 96-96 96h-160c-53.019531 0-96-42.980469-96-96v-104c57.820312-12.738281 116.796875-19.519531 176-20.238281zm0 0" fill="#6cbae5"/><path d="m416 236c0-19.882812-78.796875-36-176-36s-176 16.117188-176 36 78.796875 36 176 36 176-16.117188 176-36zm0 0" fill="#a8a8a8"/><path d="m257.386719 47.28125c-93.121094-27.894531-173.234375-35.070312-178.941407-16.023438-5.707031 19.046876 65.15625 57.105469 158.277344 85 93.117188 27.898438 173.234375 35.074219 178.9375 16.023438 5.707032-19.046875-65.15625-57.101562-158.273437-85zm0 0" fill="#6cbae5"/><path d="m176 136c0 8.835938-7.164062 16-16 16s-16-7.164062-16-16 7.164062-16 16-16 16 7.164062 16 16zm0 0" fill="#b8eaee"/><path d="m352 184c0 8.835938-7.164062 16-16 16s-16-7.164062-16-16 7.164062-16 16-16 16 7.164062 16 16zm0 0" fill="#b8eaee"/><path d="m72 120h-8c-22.082031-.027344-39.972656-17.917969-40-40v-40c0-13.253906-10.746094-24-24-24v-16c22.082031.0273438 39.972656 17.917969 40 40v40c0 13.253906 10.746094 24 24 24h8zm0 0" fill="#f7ba61"/><path d="m136 184h-8c-22.082031-.027344-39.972656-17.917969-40-40v-40c0-13.253906-10.746094-24-24-24v-16c22.082031.027344 39.972656 17.917969 40 40v40c0 13.253906 10.746094 24 24 24h8zm0 0" fill="#f7ba61"/><path d="m416 192h-8v-16h8c13.253906 0 24-10.746094 24-24v-40c.027344-22.082031 17.917969-39.972656 40-40v16c-13.253906 0-24 10.746094-24 24v40c-.027344 22.082031-17.917969 39.972656-40 40zm0 0" fill="#f7ba61"/><path d="m424 88h-16v-40c.027344-22.082031 17.917969-39.972656 40-40v16c-13.253906 0-24 10.746094-24 24zm0 0" fill="#f7ba61"/><path d="m397.664062 252c0-11.046875-70.589843-20-157.664062-20s-157.664062 8.953125-157.664062 20 70.589843 20 157.664062 20 157.664062-8.953125 157.664062-20zm0 0" fill="#f3af3e"/><path d="m371.105469 260c0-6.628906-58.699219-12-131.105469-12s-131.105469 5.371094-131.105469 12 58.699219 12 131.105469 12 131.105469-5.371094 131.105469-12zm0 0" fill="#ea9d2d"/><path d="m256 160c0 8.835938-7.164062 16-16 16s-16-7.164062-16-16 7.164062-16 16-16 16 7.164062 16 16zm0 0" fill="#b8eaee"/><g fill="#72c5f3"><path d="m272.214844 343.664062-.429688-16c8.101563-.222656 16.039063-.566406 23.75-1.015624l.929688 16c-7.878906.449218-15.960938.785156-24.25 1.015624zm0 0"/><path d="m239.929688 344c-8.234376-.078125-16.328126-.273438-24.226563-.566406l.59375-16c7.757813.292968 15.683594.476562 23.773437.558594zm0 0"/><path d="m304.542969 374.121094-1.085938-15.960938c10.917969-.753906 21.550781-1.734375 31.605469-2.921875l1.875 15.890625c-10.304688 1.214844-21.203125 2.222656-32.394531 2.992188zm0 0"/><path d="m319.265625 324.894531 1.46875 15.929688c34.679687-3.199219 73.890625-9.273438 95.265625-20.878907v-20c-1.199219 5.152344-27.199219 18.558594-96.734375 24.949219zm0 0"/><path d="m105.695312 316.886719c-32.429687-7.023438-41.167968-14.75-41.695312-16.941407v19.894532c12.136719 5.941406 25.019531 10.207031 38.304688 12.6875zm0 0"/><path d="m416 331.945312c-.671875 2.839844-12.855469 12.574219-58.6875 20.167969l2.609375 15.78125c19.238281-2.394531 38.003906-7.683593 55.664063-15.6875.230468-2.710937.414062-5.429687.414062-8.207031zm0 0"/><path d="m122.703125 352.113281c-45.847656-7.585937-58.03125-17.320312-58.703125-20.167969v12.054688c0 2.777344.183594 5.503906.414062 8.214844 17.664063 8.003906 36.4375 13.289062 55.683594 15.679687zm0 0"/></g><path d="m328 464h16v16h-16zm0 0" fill="#f3af3e"/><path d="m232 464h16v16h-16zm0 0" fill="#f3af3e"/><path d="m280 464h16v16h-16zm0 0" fill="#ea9d2d"/><path d="m184 464h16v16h-16zm0 0" fill="#ea9d2d"/><path d="m136 464h16v16h-16zm0 0" fill="#f3af3e"/><path d="m376 448h16v32h-16zm0 0" fill="#ea9d2d"/><path d="m88 448h16v32h-16zm0 0" fill="#ea9d2d"/></svg>