<svg height="472pt" viewBox="-4 0 472 472.17323" width="472pt" xmlns="http://www.w3.org/2000/svg"><path d="m40.085938 120.171875h384v304h-384zm0 0" fill="#ffb1b5"/><path d="m352.085938 120.171875h72v304h-72zm0 0" fill="#ebebeb"/><path d="m40.085938 120.171875v34.25h56v32c0 8.835937 7.164062 16 16 16 8.835937 0 16-7.164063 16-16v-32h224v-34.25zm0 0" fill="#ebebeb"/><path d="m40.085938 234.421875v32h168v24c0 8.835937 7.164062 16 16 16 8.835937 0 16-7.164063 16-16v-8c0 8.835937 7.164062 16 16 16 8.835937 0 16-7.164063 16-16v-16h80v-32zm0 0" fill="#ebebeb"/><path d="m40.085938 346.421875v32h88v5.75c0 8.839844 7.164062 16 16 16 8.835937 0 16-7.160156 16-16v-5.75h192v-32zm0 0" fill="#ebebeb"/><path d="m260.558594 65.703125c-3.960938 0-7.328125-2.894531-7.917969-6.8125-.585937-3.917969 1.777344-7.675781 5.566406-8.835937 21.613281-6.691407 38.792969-23.207032 46.335938-44.539063.898437-2.757813 3.222656-4.8125 6.074219-5.367187 2.847656-.554688 5.773437.472656 7.644531 2.691406 1.871093 2.21875 2.394531 5.273437 1.367187 7.988281-9.234375 26.113281-30.261718 46.324219-56.71875 54.519531-.761718.238282-1.554687.355469-2.351562.355469zm0 0" fill="#5e8569"/><g fill="#de9a9e"><path d="m152.085938 186.421875h16v16h-16zm0 0"/><path d="m200.085938 178.421875h16v16h-16zm0 0"/><path d="m264.085938 194.421875h16v16h-16zm0 0"/><path d="m64.085938 290.421875h16v16h-16zm0 0"/><path d="m120.085938 298.421875h16v16h-16zm0 0"/><path d="m168.085938 306.421875h16v16h-16zm0 0"/><path d="m296.085938 298.421875h16v16h-16zm0 0"/><path d="m312.085938 176.171875h16v16h-16zm0 0"/></g><path d="m.0859375 424.171875h464.0000005c0 26.511719-21.488282 48-48 48h-368c-26.507813 0-48.0000005-21.488281-48.0000005-48zm0 0" fill="#dbdbdb"/><path d="m176.085938 120.171875v8c0 17.675781 14.328124 32 32 32h32c0 13.257813 10.746093 24 24 24h8c13.253906 0 24-10.742187 24-24v-40zm0 0" fill="#dc4d41"/><path d="m304.480469 86.332031-28.320313-32.460937 1.886719-43.042969-29.824219 35.875 10.574219 30.199219zm0 0" fill="#85bc94"/><path d="m155.351562 96.171875c-4.8125-13.742187-.96875-29.027344 9.765626-38.863281l20.195312-18.503906c4.628906-4.246094 10.070312-7.511719 16-9.597657 24.214844-8.476562 50.714844 4.28125 59.199219 28.496094l1.015625 2.902344c8.472656 24.214843-4.28125 50.71875-28.496094 59.199219-5.941406 2.078124-12.242188 2.929687-18.519531 2.503906l-27.328125-1.871094c-14.507813-1.003906-27.023438-10.542969-31.832032-24.265625zm0 0" fill="#f55648"/><path d="m207.828125 52.363281 15.105469-5.285156 5.28125 15.09375-15.105469 5.285156zm0 0" fill="#c7463b"/><path d="m218.394531 82.570312 15.101563-5.285156 5.28125 15.09375-15.101563 5.285156zm0 0" fill="#c7463b"/><path d="m182.914062 78.027344 15.105469-5.28125 5.28125 15.113281-15.105469 5.277344zm0 0" fill="#c7463b"/><path d="m40.085938 408.171875h312v16h-312zm0 0" fill="#f9adb1"/><path d="m352.085938 408.171875h72v16h-72zm0 0" fill="#e4e4e2"/></svg>