<svg height="472pt" viewBox="-3 0 471 472" width="472pt" xmlns="http://www.w3.org/2000/svg"><path d="m248.5 394.742188v-58.742188h-32v58.742188c0 28.976562-11.511719 56.769531-32 77.257812h96c-20.488281-20.488281-32-48.28125-32-77.257812zm0 0" fill="#a45e14"/><path d="m272.5 240h-16v-56c0-4.417969-3.582031-8-8-8h-8v-16h8c13.253906 0 24 10.746094 24 24zm0 0" fill="#fbd699"/><path d="m224.5 176h-16c-10.875.011719-20.394531-7.289062-23.210938-17.789062-2.8125-10.503907 1.789063-21.585938 11.210938-27.011719l8 13.847656c-3.160156 1.800781-4.710938 5.507813-3.769531 9.019531.941406 3.515625 4.132812 5.953125 7.769531 5.933594h16zm0 0" fill="#fbd699"/><path d="m248.5 144h-32v-16h32c4.417969 0 8-3.582031 8-8v-24h16v24c0 13.253906-10.746094 24-24 24zm0 0" fill="#fbd699"/><path d="m328.5 224h16v56h-16zm0 0" fill="#ebebeb"/><path d="m128.5 224h16v56h-16zm0 0" fill="#ebebeb"/><path d="m24.5 424h88v16h-88zm0 0" fill="#834b10"/><path d="m352.5 424h88v16h-88zm0 0" fill="#834b10"/><path d="m112.5 272h240v32h-240zm0 0" fill="#a45e14"/><path d="m112.5 290.167969h240v13h-240zm0 0" fill="#834b10"/><path d="m168.5 272h128v72h-128zm0 0" fill="#ebebeb"/><path d="m128.5 246.527344c5.152344 1.964844 10.847656 1.964844 16 0v-22.527344h-16zm0 0" fill="#e4e4e2"/><path d="m328.5 246.527344c5.152344 1.964844 10.847656 1.964844 16 0v-22.527344h-16zm0 0" fill="#e4e4e2"/><path d="m104.5 376h32v96h-32zm0 0" fill="#a45e14"/><path d="m.5 368h32v104h-32zm0 0" fill="#a45e14"/><path d="m216.5 208v16h32v-16c0-8.835938-7.164062-16-16-16s-16 7.164062-16 16zm0 0" fill="#b9b9b9"/><path d="m232.5 216c26.507812 0 48 21.492188 48 48v8h-96v-8c0-26.507812 21.492188-48 48-48zm0 0" fill="#cdcdcd"/><path d="m224.5 0h16v32h-16zm0 0" fill="#c38325"/><path d="m184.5 272 48 36 48-36zm0 0" fill="#c7463b"/><path d="m328.5 368h32v104h-32zm0 0" fill="#a45e14"/><path d="m432.5 368h32v104h-32zm0 0" fill="#a45e14"/><g fill="#834b10"><path d="m136.5 400h-32v-16h32zm0 0"/><path d="m32.5 400h-32v-16h32zm0 0"/><path d="m328.5 384h32v16h-32zm0 0"/><path d="m432.5 384h32v16h-32zm0 0"/></g><path d="m112.5 192h48v24c0 13.253906-10.746094 24-24 24s-24-10.746094-24-24zm0 0" fill="#ebebeb"/><path d="m312.5 192h48v24c0 13.253906-10.746094 24-24 24s-24-10.746094-24-24zm0 0" fill="#ebebeb"/><path d="m240.5 16.71875c-5.289062-.957031-10.710938-.957031-16 0v23.28125h16zm0 0" fill="#d18d28"/><path d="m216.5 344h32v16h-32zm0 0" fill="#834b10"/><path d="m280.5 72h-96c0-26.507812 21.492188-48 48-48s48 21.492188 48 48zm0 0" fill="#ea9d2d"/><path d="m48.5 216v120h72c8.835938 0 16 7.164062 16 16v32h-136v-168c0-13.253906 10.746094-24 24-24s24 10.746094 24 24zm0 0" fill="#dc4d41"/><path d="m416.5 216v120h-72c-8.835938 0-16 7.164062-16 16v32h136v-168c0-13.253906-10.746094-24-24-24s-24 10.746094-24 24zm0 0" fill="#dc4d41"/></svg>