<svg height="464pt" viewBox="0 -16 464.1836 464" width="464pt" xmlns="http://www.w3.org/2000/svg"><path d="m376.082031 48.207031c-17.289062-.019531-34.195312 5.078125-48.589843 14.65625-16.492188-38.011719-53.976563-62.609375-95.410157-62.609375-41.433593 0-78.917969 24.597656-95.40625 62.609375-31.394531-20.8125-72.550781-19.339843-102.375 3.664063s-41.703125 62.441406-29.542969 98.089844c12.160157 35.648437 45.660157 59.605468 83.324219 59.589843v208h288v-208c48.601563 0 88-39.398437 88-88 0-48.601562-39.398437-88-88-88zm0 0" fill="#dbdbdb"/><g fill="#cfcfcf"><path d="m320.082031 177.726562h16v190.480469h-16zm0 0"/><path d="m192.082031 177.726562h16v190.480469h-16zm0 0"/><path d="m128.082031 177.726562h16v190.480469h-16zm0 0"/><path d="m256.082031 168.207031h16v200h-16zm0 0"/></g><path d="m88.082031 368.207031h288v64h-288zm0 0" fill="#eaeae8"/><path d="m336.082031 392.207031h16v16h-16zm0 0" fill="#dbdbdb"/><path d="m304.082031 392.207031h16v16h-16zm0 0" fill="#dbdbdb"/><path d="m376.082031 48.207031c-17.289062-.019531-34.195312 5.078125-48.589843 14.65625-16.492188-38.011719-53.976563-62.609375-95.410157-62.609375-41.433593 0-78.917969 24.597656-95.40625 62.609375-29.914062-19.859375-68.894531-19.554687-98.492187.773438-29.601563 20.324219-43.878906 56.597656-36.085938 91.648437 7.796875 35.046875 36.109375 61.847656 71.53125 67.710938 35.425782 5.863281 70.859375-10.382813 89.535156-41.054688 39.273438 35.019532 98.5625 35.019532 137.839844 0 22.070313 36.28125 66.898438 51.625 106.570313 36.476563 39.671875-15.148438 62.867187-56.464844 55.140625-98.21875-7.726563-41.757813-44.167969-72.039063-86.632813-71.992188zm0 0" fill="#eaeae8"/><path d="m232.082031 216.207031c-41.796875.070313-80.140625-23.195312-99.375-60.304687l14.183594-7.390625c16.53125 31.777343 49.378906 51.714843 85.199219 51.714843 35.824218 0 68.667968-19.9375 85.199218-51.714843l14.183594 7.390625c-19.238281 37.113281-57.585937 60.382812-99.390625 60.304687zm0 0" fill="#e4e4e2"/><path d="m129.304688 88.207031c7.601562-49.179687 48.980468-86.085937 98.707031-88.035156 49.726562-1.949219 93.867187 31.601563 105.292969 80.035156" fill="#eaeae8"/></svg>