<svg height="408pt" viewBox="0 -8 408 408" width="408pt" xmlns="http://www.w3.org/2000/svg"><path d="m360 184h-64v48h56c4.417969 0 8 3.582031 8 8v16c0 4.417969-3.582031 8-8 8h-56v48h64c26.507812 0 48-21.492188 48-48v-32c0-26.507812-21.492188-48-48-48zm0 0" fill="#dc4d41"/><path d="m337.0625 264h-41.0625v48h25.03125c6.878906-15.445312 12.246094-31.519531 16.03125-48zm0 0" fill="#b94137"/><path d="m342.398438 232c1.015624-9.121094 1.550781-18.289062 1.601562-27.464844v-20.535156h-48v48zm0 0" fill="#b94137"/><path d="m288 344h-208c-26.140625-41.816406-40-90.140625-40-139.457031v-20.542969h288v20.535156c0 49.320313-13.859375 97.644532-40 139.464844zm0 0" fill="#dc4d41"/><path d="m0 344h368c0 26.507812-21.492188 48-48 48h-272c-26.507812 0-48-21.492188-48-48zm0 0" fill="#da922a"/><path d="m48 184 2.015625-5.304688c3.832031-10.109374 11.152344-18.519531 20.640625-23.710937 31.960938-17.476563 68.867188-23.722656 104.800781-17.738281l111.589844 18.59375c15.355469 2.558594 28.035156 13.394531 32.953125 28.160156zm0 0" fill="#f5f5f5"/><path d="m184 104c-4.417969 0-8-3.582031-8-8 .113281-6.378906-2.203125-12.558594-6.472656-17.296875-6.261719-7.476563-9.640625-16.949219-9.527344-26.703125-.113281-9.753906 3.265625-19.226562 9.527344-26.703125 4.269531-4.738281 6.585937-10.917969 6.472656-17.296875 0-4.417969 3.582031-8 8-8s8 3.582031 8 8c.113281 9.753906-3.265625 19.226562-9.527344 26.703125-4.269531 4.738281-6.585937 10.917969-6.472656 17.296875-.113281 6.378906 2.203125 12.558594 6.472656 17.296875 6.261719 7.476563 9.640625 16.949219 9.527344 26.703125 0 4.417969-3.582031 8-8 8zm0 0" fill="#fbd699"/><path d="m128 104c-4.417969 0-8-3.582031-8-8-.058594-4.894531-2.238281-9.527344-5.976562-12.6875-6.398438-6.066406-10.023438-14.496094-10.023438-23.3125s3.625-17.246094 10.023438-23.3125c3.738281-3.160156 5.917968-7.792969 5.976562-12.6875 0-4.417969 3.582031-8 8-8s8 3.582031 8 8c-.027344 8.8125-3.648438 17.230469-10.023438 23.3125-3.785156 3.125-5.976562 7.777344-5.976562 12.6875s2.191406 9.5625 5.976562 12.6875c6.375 6.082031 9.996094 14.5 10.023438 23.3125 0 4.417969-3.582031 8-8 8zm0 0" fill="#fbd699"/><path d="m240 104c-4.417969 0-8-3.582031-8-8-.058594-4.894531-2.238281-9.527344-5.976562-12.6875-6.398438-6.066406-10.023438-14.496094-10.023438-23.3125s3.625-17.246094 10.023438-23.3125c3.738281-3.160156 5.917968-7.792969 5.976562-12.6875 0-4.417969 3.582031-8 8-8s8 3.582031 8 8c-.027344 8.8125-3.648438 17.230469-10.023438 23.3125-3.785156 3.125-5.976562 7.777344-5.976562 12.6875s2.191406 9.5625 5.976562 12.6875c6.375 6.082031 9.996094 14.5 10.023438 23.3125 0 4.417969-3.582031 8-8 8zm0 0" fill="#fbd699"/><g fill="#ee5346"><path d="m104 208h-63.878906c.070312 5.34375.238281 10.6875.632812 16h63.246094c4.417969 0 8-3.582031 8-8s-3.582031-8-8-8zm0 0"/><path d="m144 224h-8c-4.417969 0-8-3.582031-8-8s3.582031-8 8-8h8c4.417969 0 8 3.582031 8 8s-3.582031 8-8 8zm0 0"/><path d="m307.855469 305.128906c-1.164063-.707031-2.492188-1.097656-3.855469-1.128906h-48c-4.417969 0-8 3.582031-8 8s3.582031 8 8 8h45.136719c2.394531-4.894531 4.632812-9.851562 6.71875-14.871094zm0 0"/><path d="m319.070312 272h-47.070312c-4.417969 0-8 3.582031-8 8s3.582031 8 8 8h42.257812c1.769532-5.285156 3.375-10.617188 4.8125-16zm0 0"/></g><path d="m297.230469 328h-226.460938c2.878907 5.425781 5.953125 10.757812 9.222657 16h208.007812c3.269531-5.238281 6.347656-10.570312 9.230469-16zm0 0" fill="#b94137"/><path d="m54.574219 170c-1.832031 2.722656-3.363281 5.640625-4.558594 8.695312l-2.015625 5.304688h272c-1.734375-5.140625-4.449219-9.894531-8-14zm0 0" fill="#e4e4e4"/></svg>