<svg height="464pt" viewBox="0 -44 464 464" width="464pt" xmlns="http://www.w3.org/2000/svg"><path d="m456 96h-16v-32c0-17.671875-14.328125-32-32-32h-16v-16h16c26.5.027344 47.972656 21.5 48 48zm0 0" fill="#7c4710"/><path d="m392 32h-24c-8.835938 0-16-7.164062-16-16v-16h24c8.835938 0 16 7.164062 16 16zm0 0" fill="#985713"/><path d="m312 256 24 48-8 72h32l16-72v-56h-64zm0 0" fill="#7c4710"/><path d="m200 256 16 48-8 72h32l16-72-8-48v-8h-48zm0 0" fill="#7c4710"/><path d="m128 216 16 88-16 72h32l24-72 8-64v-24zm0 0" fill="#985713"/><path d="m400 64h-232l-56-24h-64l-24 40-24 8v24c0 13.253906 10.746094 24 24 24h64c13.253906 0 24 10.746094 24 24v40c0 30.929688 25.070312 56 56 56h296v-128c0-35.347656-28.652344-64-64-64zm0 0" fill="#985713"/><path d="m384 200v40l40 64-8 72h32l16-72v-104zm0 0" fill="#985713"/><g fill="#7c4710"><path d="m80 76c0 6.628906-5.371094 12-12 12s-12-5.371094-12-12 5.371094-12 12-12 12 5.371094 12 12zm0 0"/><path d="m64 48h-3.160156c-20.699219.023438-40.035156-10.324219-51.496094-27.558594-2.453125-3.675781-1.460938-8.644531 2.214844-11.097656 3.675781-2.453125 8.644531-1.460938 11.097656 2.214844 8.496094 12.785156 22.835938 20.457031 38.183594 20.441406h3.160156c4.417969 0 8 3.582031 8 8s-3.582031 8-8 8zm0 0"/><path d="m112 48 64 8-6.703125 6.703125c-15.109375 15.105469-38.1875 18.851563-57.296875 9.296875zm0 0"/><path d="m272 136c-12.242188-.046875-23.386719-7.070312-28.703125-18.097656-3.605469 1.386718-7.433594 2.097656-11.296875 2.097656-17.671875 0-32-14.328125-32-32h16c-.03125 6.347656 3.710938 12.105469 9.527344 14.65625 5.8125 2.550781 12.582031 1.402344 17.234375-2.921875 2.265625-2.078125 5.519531-2.675781 8.378906-1.535156 2.855469 1.140625 4.804687 3.820312 5.011719 6.890625.53125 8.359375 7.46875 14.871094 15.847656 14.871094s15.316406-6.511719 15.847656-14.871094c.207032-3.070313 2.15625-5.75 5.011719-6.890625 2.859375-1.140625 6.113281-.542969 8.378906 1.535156 4.652344 4.324219 11.421875 5.472656 17.234375 2.921875 5.816406-2.550781 9.558594-8.308594 9.527344-14.65625h16c0 17.671875-14.328125 32-32 32-3.863281 0-7.691406-.710938-11.296875-2.097656-5.316406 11.027344-16.460937 18.050781-28.703125 18.097656zm0 0"/><path d="m368 216c-12.242188-.046875-23.386719-7.070312-28.703125-18.097656-3.605469 1.386718-7.433594 2.097656-11.296875 2.097656-17.671875 0-32-14.328125-32-32h16c-.03125 6.347656 3.710938 12.105469 9.527344 14.65625 5.8125 2.550781 12.582031 1.402344 17.234375-2.921875 2.265625-2.078125 5.519531-2.675781 8.378906-1.535156 2.855469 1.140625 4.804687 3.820312 5.011719 6.890625.53125 8.359375 7.46875 14.871094 15.847656 14.871094s15.316406-6.511719 15.847656-14.871094c.207032-3.070313 2.15625-5.75 5.011719-6.890625 2.859375-1.140625 6.113281-.542969 8.378906 1.535156 4.652344 4.324219 11.421875 5.472656 17.234375 2.921875 5.816406-2.550781 9.558594-8.308594 9.527344-14.65625h16c0 17.671875-14.328125 32-32 32-3.863281 0-7.691406-.710938-11.296875-2.097656-5.316406 11.027344-16.460937 18.050781-28.703125 18.097656zm0 0"/><path d="m208 200c-12.242188-.046875-23.386719-7.070312-28.703125-18.097656-3.605469 1.386718-7.433594 2.097656-11.296875 2.097656-17.671875 0-32-14.328125-32-32h16c-.03125 6.347656 3.710938 12.105469 9.527344 14.65625 5.8125 2.550781 12.582031 1.402344 17.234375-2.921875 2.265625-2.078125 5.519531-2.675781 8.378906-1.535156 2.855469 1.140625 4.804687 3.820312 5.011719 6.890625.53125 8.359375 7.46875 14.871094 15.847656 14.871094s15.316406-6.511719 15.847656-14.871094l16 1.09375c-1.171875 16.746094-15.0625 29.75-31.847656 29.816406zm0 0"/></g></svg>