<svg height="464pt" viewBox="0 -140 464 464" width="464pt" xmlns="http://www.w3.org/2000/svg"><path d="m232 144 6.503906 9.753906c5.933594 8.898438 15.925782 14.246094 26.625 14.246094h38.871094l-16-24-17-24-55.199219-1.71875zm0 0" fill="#4799cf"/><path d="m271 120-55.199219-1.71875 16.199219 25.71875 3.617188 5.425781c17.101562-1.65625 34.085937-4.195312 50.925781-7.480469zm0 0" fill="#418bbd"/><path d="m184 32 22.664062-22.640625c5.992188-5.984375 14.113282-9.3515625 22.582032-9.359375h42.753906l-32 32-13.503906 16zm0 0" fill="#4799cf"/><path d="m191.769531 24.199219-7.769531 7.800781 42.527344 16 13.472656-16 4.464844-4.464844c-17.472656-1.984375-35.039063-3.09375-52.695313-3.335937zm0 0" fill="#418bbd"/><path d="m184 144c-52.5.003906-104.175781-13.023438-150.398438-37.910156l-33.601562-18.089844 33.601562-18.089844c46.222657-24.886718 97.898438-37.914062 150.398438-37.910156 73.878906.003906 146.957031 15.292969 214.640625 44.902344l25.359375 11.097656-25.359375 11.097656c-67.683594 29.609375-140.761719 44.898438-214.640625 44.902344zm0 0" fill="#6cbae5"/><g fill="#418bbd"><path d="m112 83.199219c.015625 17.230469-5.082031 34.074219-14.65625 48.402343l.585938.390626c5.144531 1.445312 10.316406 2.777343 15.511718 4 9.53125-15.960938 14.5625-34.203126 14.558594-52.792969v-3.199219h-16zm0 0"/><path d="m84 100c-6.628906 0-12-5.371094-12-12s5.371094-12 12-12 12 5.371094 12 12-5.371094 12-12 12zm0 0"/><path d="m177.367188 32.207031c-6.101563.125-12.1875.417969-18.253907.890625l.480469.71875c10.714844 16.035156 16.425781 34.894532 16.40625 54.183594h16c.015625-19.546875-5.023438-38.769531-14.632812-55.792969zm0 0"/><path d="m191.59375 33.816406c10.714844 16.035156 16.425781 34.894532 16.40625 54.183594h16c.011719-19.375-4.945312-38.425781-14.398438-55.335938-6.355468-.304687-12.730468-.417968-19.105468-.496093zm0 0"/><path d="m223.59375 33.816406c10.714844 16.035156 16.425781 34.894532 16.40625 54.183594h16c-.003906-18.34375-4.46875-36.414062-13.007812-52.648438-6.488282-.71875-13-1.230468-19.519532-1.71875zm0 0"/></g><path d="m152 112c20.144531 0 39.113281-9.484375 51.199219-25.601562l4.800781-6.398438h-40c-8.835938 0-16 7.164062-16 16zm0 0" fill="#4799cf"/><path d="m424 88-18.289062-8h-101.710938v16h101.710938zm0 0" fill="#418bbd"/><path d="m152 168h16v16h-16zm0 0" fill="#c0f5f9"/><path d="m184 168h32v16h-32zm0 0" fill="#c0f5f9"/><path d="m296 8h16v16h-16zm0 0" fill="#c0f5f9"/><path d="m328 8h32v16h-32zm0 0" fill="#c0f5f9"/><path d="m272 88h16c.007812-16.433594-3.5625-32.675781-10.464844-47.59375-6.585937-1.167969-13.195312-2.21875-19.824218-3.148438 9.339843 15.277344 14.285156 32.835938 14.289062 50.742188zm0 0" fill="#418bbd"/><path d="m424 88 40-48-8 48 8 48zm0 0" fill="#4799cf"/></svg>