<svg height="464pt" viewBox="0 -47 464 463" width="464pt" xmlns="http://www.w3.org/2000/svg"><path d="m0 208.5c0 88.367188 71.632812 160 160 160s160-71.632812 160-160zm0 0" fill="#6b9777"/><path d="m160 336.5c70.691406 0 128-57.308594 128-128h-256c0 70.691406 57.308594 128 128 128zm0 0" fill="#dc4d41"/><path d="m416 96.5h-96l48-96zm0 0" fill="#5e8569"/><path d="m320 96.5h96c26.507812 0 48 21.492188 48 48v176c0 26.507812-21.492188 48-48 48h-96c-26.507812 0-48-21.492188-48-48v-176c0-26.507812 21.492188-48 48-48zm0 0" fill="#fbb540"/><path d="m312 152.5c-2.121094 0-4.15625-.84375-5.65625-2.34375l-16-16 11.3125-11.3125 10.34375 10.34375 10.34375-10.34375 11.3125 11.3125-16 16c-1.5 1.5-3.535156 2.34375-5.65625 2.34375zm0 0" fill="#ea9d2d"/><path d="m424 152.5c-2.121094 0-4.15625-.84375-5.65625-2.34375l-16-16 11.3125-11.3125 10.34375 10.34375 10.34375-10.34375 11.3125 11.3125-16 16c-1.5 1.5-3.535156 2.34375-5.65625 2.34375zm0 0" fill="#ea9d2d"/><path d="m368 152.5c-2.121094 0-4.15625-.84375-5.65625-2.34375l-16-16 11.3125-11.3125 10.34375 10.34375 10.34375-10.34375 11.3125 11.3125-16 16c-1.5 1.5-3.535156 2.34375-5.65625 2.34375zm0 0" fill="#ea9d2d"/><path d="m312 200.5c-2.121094 0-4.15625-.84375-5.65625-2.34375l-16-16 11.3125-11.3125 10.34375 10.34375 10.34375-10.34375 11.3125 11.3125-16 16c-1.5 1.5-3.535156 2.34375-5.65625 2.34375zm0 0" fill="#ea9d2d"/><path d="m256 152.5h23.710938c12.507812-.640625 23.839843 7.316406 27.488281 19.296875l4.800781 20.703125h-23.710938c-12.507812.640625-23.839843-7.316406-27.488281-19.296875zm0 0" fill="#6b9777"/><g fill="#ea9d2d"><path d="m424 200.5c-2.121094 0-4.15625-.84375-5.65625-2.34375l-16-16 11.3125-11.3125 10.34375 10.34375 10.34375-10.34375 11.3125 11.3125-16 16c-1.5 1.5-3.535156 2.34375-5.65625 2.34375zm0 0"/><path d="m368 200.5c-2.121094 0-4.15625-.84375-5.65625-2.34375l-16-16 11.3125-11.3125 10.34375 10.34375 10.34375-10.34375 11.3125 11.3125-16 16c-1.5 1.5-3.535156 2.34375-5.65625 2.34375zm0 0"/><path d="m424 248.5c-2.121094 0-4.15625-.84375-5.65625-2.34375l-16-16 11.3125-11.3125 10.34375 10.34375 10.34375-10.34375 11.3125 11.3125-16 16c-1.5 1.5-3.535156 2.34375-5.65625 2.34375zm0 0"/><path d="m424 296.5c-2.121094 0-4.15625-.84375-5.65625-2.34375l-16-16 11.3125-11.3125 10.34375 10.34375 10.34375-10.34375 11.3125 11.3125-16 16c-1.5 1.5-3.535156 2.34375-5.65625 2.34375zm0 0"/><path d="m424 344.5c-2.121094 0-4.15625-.84375-5.65625-2.34375l-16-16 11.3125-11.3125 10.34375 10.34375 10.34375-10.34375 11.3125 11.3125-16 16c-1.5 1.5-3.535156 2.34375-5.65625 2.34375zm0 0"/><path d="m368 344.5c-2.121094 0-4.15625-.84375-5.65625-2.34375l-16-16 11.3125-11.3125 10.34375 10.34375 10.34375-10.34375 11.3125 11.3125-16 16c-1.5 1.5-3.535156 2.34375-5.65625 2.34375zm0 0"/></g><path d="m416 96.5 24-88-120 88zm0 0" fill="#6b9777"/><path d="m144 160.5 26.121094 8.703125c13.066406 4.355469 21.878906 16.585937 21.878906 30.359375v16.9375l-26.121094-8.703125c-13.066406-4.355469-21.878906-16.585937-21.878906-30.359375zm0 0" fill="#85bc94"/><path d="m192.839844 260.074219-8-16c-.167969-.335938-.3125-.6875-.433594-1.046875-5.824219-17.585938.808594-36.898438 16.210938-47.199219l2.941406-1.96875 8.882812 13.3125-2.945312 1.96875c-9.253906 6.183594-13.347656 17.707031-10.070313 28.34375l7.734375 15.457031zm0 0" fill="#a45e14"/><path d="m64 232.5h16v16h-16zm0 0" fill="#a8a8a8"/><path d="m112 232.5h16v16h-16zm0 0" fill="#a8a8a8"/><path d="m88 264.5h16v16h-16zm0 0" fill="#a8a8a8"/><path d="m320 96.5-24-88 112 88zm0 0" fill="#85bc94"/><path d="m176 240.5c-33.847656.117188-61.746094 26.570312-63.671875 60.359375-1.925781 33.792969 22.792969 63.242187 56.40625 67.199219 11.5625-.605469 23.019531-2.46875 34.175781-5.550782 27.179688-12.667968 41.921875-42.511718 35.460938-71.792968-6.457032-29.285156-32.382813-50.15625-62.371094-50.214844zm0 0" fill="#5e8569"/><path d="m176 240.5c-21.355469-.007812-41.308594 10.636719-53.195312 28.382812-11.886719 17.742188-14.140626 40.246094-6.003907 59.992188 41.742188 15.164062 88.375 7.4375 123-20.375.078125-1.328125.199219-2.640625.199219-4 0-35.347656-28.652344-64-64-64zm0 0" fill="#c7463b"/><path d="m144 304.5c0 35.347656-28.652344 64-64 64s-64-28.652344-64-64zm0 0" fill="#fd9226"/><path d="m80 336.5c17.671875 0 32-14.328125 32-32h-64c0 17.671875 14.328125 32 32 32zm0 0" fill="#fdbb35"/><path d="m144 304.5h-32c-.007812 15.558594 5.6875 30.582031 16 42.230469 10.3125-11.648438 16.007812-26.671875 16-42.230469zm0 0" fill="#f08b24"/><path d="m256 304.5c0 35.347656-28.652344 64-64 64s-64-28.652344-64-64 28.652344-64 64-64 64 28.652344 64 64zm0 0" fill="#fd9226"/><path d="m160 280.5h16v16h-16zm0 0" fill="#e68523"/><path d="m192 296.5h16v16h-16zm0 0" fill="#e68523"/><path d="m168 320.5h16v16h-16zm0 0" fill="#e68523"/><path d="m256 304.5c-.027344-29.089844-19.671875-54.5-47.816406-61.855469 0 .632813-.183594 1.222657-.183594 1.855469 0 28.933594 6.738281 57.472656 19.679688 83.351562l10.464843 20.929688c11.460938-11.890625 17.863281-27.765625 17.855469-44.28125zm0 0" fill="#f08b24"/><path d="m334.398438 368.5c-4.109376 0-8.050782-1.632812-10.957032-4.535156l-19.441406-19.464844-19.464844 19.464844c-2.902344 2.898437-6.832031 4.53125-10.933594 4.535156-5.871093-.003906-11.234374-3.320312-13.867187-8.566406l-16-32.082032c-12.960937-25.875-19.71875-54.410156-19.734375-83.351562 0-19.882812 16.117188-36 36-36 7.789062 0 15.367188 2.527344 21.601562 7.199219l6.757813 5.074219c9.269531 6.949218 22.011719 6.949218 31.28125 0l6.757813-5.074219c6.234374-4.671875 13.8125-7.199219 21.601562-7.199219 19.882812 0 36 16.117188 36 36 0 28.933594-6.738281 57.472656-19.679688 83.351562l-16 32.082032c-2.636718 5.265625-8.03125 8.582031-13.921874 8.566406zm0 0" fill="#b9dd33"/><path d="m304 256.5c-4.417969 0-8-3.582031-8-8v-14.0625c-.066406-23.867188 9.417969-46.765625 26.34375-63.59375 3.140625-3.03125 8.128906-2.988281 11.214844.097656 3.085937 3.085938 3.128906 8.074219.097656 11.214844-13.914062 13.835938-21.710938 32.660156-21.65625 52.28125v14.0625c0 4.417969-3.582031 8-8 8zm0 0" fill="#8d7761"/><path d="m304 260.363281c-9.015625.011719-17.972656-1.433593-26.527344-4.277343-4.199218-1.398438-6.46875-5.933594-5.074218-10.128907 1.398437-4.199219 5.933593-6.46875 10.128906-5.074219 13.945312 4.609376 29 4.609376 42.945312 0 4.195313-1.394531 8.730469.875 10.128906 5.074219 1.394532 4.195313-.875 8.730469-5.074218 10.128907-8.554688 2.84375-17.511719 4.289062-26.527344 4.277343zm0 0" fill="#a8c92e"/></svg>