<svg height="464pt" viewBox="-17 0 464 464" width="464pt" xmlns="http://www.w3.org/2000/svg"><path d="m254.417969 344h-96c-57.4375 0-104-46.5625-104-104h304c0 57.4375-46.5625 104-104 104zm0 0" fill="#dbdbdb"/><path d="m329.21875 43.304688-25.6875 97.597656 97.609375-25.703125c6.464844-1.699219 12.367187-5.085938 17.09375-9.816407 14.761719-14.753906 14.761719-38.683593 0-53.4375l-25.757813-25.761718c-14.757812-14.753906-38.675781-14.753906-53.433593 0-4.734375 4.734375-8.125 10.644531-9.824219 17.121094zm0 0" fill="#fbb540"/><path d="m418.234375 51.960938-7.269531-7.273438-84.464844 8.914062-4.351562 16.550782 101.726562-10.769532c-1.5625-2.699218-3.457031-5.195312-5.640625-7.421874zm0 0" fill="#ea9d2d"/><path d="m428.820312 73.808594-110.710937 11.71875-4.355469 16.542968 113.601563-12c1.671875-5.246093 2.171875-10.800781 1.464843-16.261718zm0 0" fill="#ea9d2d"/><path d="m294.417969 112v-17.816406c0-16.667969-13.511719-30.183594-30.183594-30.183594h-9.816406l2.632812-7.902344c3.40625-10.21875 2.179688-21.414062-3.359375-30.648437l-15.273437-25.449219-15.300781 15.304688c-5.652344 5.632812-12.972657 9.28125-20.875 10.398437l-12.140626 1.738281c-18.191406 2.597656-31.695312 18.183594-31.683593 36.558594h-9.8125c-16.671875 0-30.1875 13.515625-30.1875 30.183594v17.816406s-16 10.742188-16 24c0 13.253906 10.746093 24 24 24h184v-24c0-13.257812-16-24-16-24zm0 0" fill="#f5f5f3"/><path d="m294.417969 112v-17.816406c0-16.667969-13.511719-30.183594-30.183594-30.183594h-9.597656c-36.273438 30.976562-82.410157 48-130.113281 48h-6.105469s-16 10.742188-16 24c0 13.253906 10.746093 24 24 24h184v-24c0-13.257812-16-24-16-24zm0 0" fill="#e6e6e4"/><path d="m179.882812 160c12.992188-36.722656 46.886719-61.957031 85.796876-63.867188 38.90625-1.914062 75.113281 19.878907 91.640624 55.152344 16.527344 35.273438 10.097657 77.039063-16.269531 105.714844-26.367187 28.671875-67.449219 38.570312-103.984375 25.046875zm0 0" fill="#41dfd0"/><path d="m246.417969 248c0 53.019531-42.980469 96-96 96s-96-42.980469-96-96 42.980469-96 96-96 96 42.980469 96 96zm0 0" fill="#ffb1b5"/><path d="m237.074219 282.03125c43.859375 16.242188 93.035156-1.515625 116.402343-42.03125h-107.457031zm0 0" fill="#39cfca"/><path d="m246.417969 248c0-2.703125-.183594-5.351562-.398438-8h-191.199219c-.214843 2.648438-.402343 5.296875-.402343 8-.003907 49.222656 37.222656 90.472656 86.1875 95.503906 3.199219.304688 6.503906.496094 9.8125.496094 53.019531 0 96-42.980469 96-96zm0 0" fill="#eea5a9"/><path d="m140.652344 318.023438c-26.707032-6.199219-48.4375-25.546876-57.679688-51.359376l15.085938-5.328124c7.402344 20.636718 24.773437 36.101562 46.128906 41.0625zm0 0" fill="#de9a9e"/><path d="m158.417969 304h16v16h-16zm0 0" fill="#de9a9e"/><path d="m295.453125 462.921875c-.585937-17.25-14.742187-30.933594-32-30.921875h-1.035156c-22.089844 0-40-17.910156-40-40v-48h-32v48c0 22.089844-17.90625 40-40 40-17.671875 0-32 14.328125-32 32h177.074219zm0 0" fill="#dbdbdb"/><path d="m128.804688 84.832031c0 22.777344-18.464844 41.238281-41.242188 41.238281-22.773438 0-41.238281-18.460937-41.238281-41.238281 0-22.777343 18.464843-41.238281 41.238281-41.238281 22.777344 0 41.242188 18.460938 41.242188 41.238281zm0 0" fill="#dc4d41"/><path d="m83.523438 78.296875c-2.859376 0-5.503907-1.523437-6.9375-4l-1.308594-2.296875c-14.082032-24.515625-39.542969-40.3125-67.761719-42.039062-4.417969-.277344-7.777344-4.082032-7.5-8.5.277344-4.417969 4.082031-7.777344 8.5-7.5 33.582031 2.054687 63.878906 20.859374 80.625 50.039062l1.304687 2.265625c1.425782 2.472656 1.425782 5.519531 0 7.996094-1.425781 2.472656-4.066406 4-6.921874 4.003906zm0 0" fill="#89b140"/><path d="m77.957031 86.625-13.402343-8.738281 2-3.070313c8.222656-12.574218 23.78125-18.175781 38.128906-13.726562l-4.800782 15.261718c-7.511718-2.328124-15.65625.613282-19.953124 7.199219zm0 0" fill="#b94137"/><path d="m254.605469 64h-.1875l2.632812-7.902344c3.40625-10.21875 2.179688-21.414062-3.359375-30.648437v-.050781c-24.945312 24.714843-58.636718 38.585937-93.75 38.601562h-11.335937c-16.671875 0-30.1875 13.515625-30.1875 30.183594v17.816406h6.074219c47.703124 0 93.835937-17.023438 130.113281-48zm0 0" fill="#eeeeec"/><g fill="#3bd6d0"><path d="m262.417969 176h16v16h-16zm0 0"/><path d="m294.417969 192h16v16h-16zm0 0"/><path d="m318.417969 160h16v16h-16zm0 0"/></g><path d="m102.417969 200h16v16h-16zm0 0" fill="#de9a9e"/><path d="m134.417969 176h16v16h-16zm0 0" fill="#de9a9e"/><path d="m190.417969 344h32v24h-32zm0 0" fill="#cbcbcb"/></svg>