<svg height="470pt" viewBox="-3 0 470 470.99206" width="470pt" xmlns="http://www.w3.org/2000/svg"><path d="m304.496094 470.992188h-152l-24-360h200zm0 0" fill="#ebebeb"/><path d="m132.761719 174.992188 19.734375 296h152l19.734375-296zm0 0" fill="#fd7553"/><path d="m36.40625 355.257812 5.042969 13.261719c11.394531 29.976563 33.476562 54.675781 62 69.335938 32.730469 16.824219 71.0625 18.96875 105.460937 5.898437l21.265625-8.082031c43.300781-16.457031 79.945313-46.765625 104.230469-86.207031l19.609375-31.839844c6.5-10.566406 3.289063-24.394531-7.199219-31.015625-8.757812-5.546875-20.160156-4.441406-27.6875 2.6875l-34.402344 32.550781c-18.632812 17.640625-41.136718 30.675782-65.710937 38.054688-44.660156 13.414062-92.914063 7.234375-132.75-17l-15.335937-9.335938zm0 0" fill="#ea9d2d"/><path d="m.496094 286.992188 32 40v14.183593c0 32.070313 11.871094 63.003907 33.328125 86.839844 24.613281 27.359375 59.6875 42.980469 96.488281 42.976563h22.742188c46.324218 0 91.351562-15.3125 128.066406-43.558594l29.597656-22.792969c9.832031-7.566406 11.75-21.628906 4.3125-31.550781-6.21875-8.292969-17.269531-11.304688-26.839844-7.320313l-43.695312 18.214844c-23.683594 9.871094-49.351563 14.054687-74.945313 12.222656-46.511719-3.316406-89.429687-26.234375-118.054687-63.046875l-5.519532-7.089844c-3.667968-4.71875-7.089843-9.621093-10.257812-14.6875l-35.222656-56.390624zm0 0" fill="#f3af3e"/><path d="m414.894531 470.992188c-4.109375 0-8.050781-1.632813-10.957031-4.535157l-19.441406-19.464843-19.464844 19.464843c-2.902344 2.898438-6.832031 4.527344-10.933594 4.535157-5.871094-.003907-11.238281-3.320313-13.867187-8.566407l-16-32.082031c-12.960938-25.875-19.71875-54.410156-19.734375-83.351562 0-19.882813 16.117187-36 36-36 7.789062 0 15.367187 2.527343 21.601562 7.199218l6.757813 5.074219c9.269531 6.949219 22.011719 6.949219 31.28125 0l6.757812-5.074219c6.234375-4.671875 13.8125-7.199218 21.601563-7.199218 19.882812 0 36 16.117187 36 36 0 28.933593-6.738282 57.472656-19.679688 83.351562l-16 32.082031c-2.640625 5.265625-8.03125 8.582031-13.921875 8.566407zm0 0" fill="#f55648"/><path d="m384.496094 358.992188c-4.417969 0-8-3.582032-8-8v-14.0625c-.066406-23.867188 9.417968-46.765626 26.34375-63.59375 3.140625-3.03125 8.128906-2.988282 11.214844.097656 3.085937 3.085937 3.128906 8.074218.097656 11.214844-13.914063 13.832031-21.710938 32.660156-21.65625 52.28125v14.0625c0 4.417968-3.582032 8-8 8zm0 0" fill="#985713"/><path d="m336.496094 254.992188h23.710937c12.507813-.640626 23.839844 7.316406 27.488281 19.296874l4.800782 20.703126h-23.710938c-12.507812.636718-23.839844-7.316407-27.488281-19.296876zm0 0" fill="#aac16b"/><path d="m208.3125 339.792969c-2.023438 0-3.96875-.769531-5.449219-2.144531-13.554687-12.640626-17-32.773438-8.421875-49.199219l1.648438-3.144531c1.285156-2.605469 3.878906-4.308594 6.78125-4.453126 2.898437-.140624 5.652344 1.300782 7.183594 3.765626 1.535156 2.46875 1.613281 5.570312.203124 8.109374l-1.601562 3.136719c-5.242188 10.035157-3.140625 22.339844 5.136719 30.066407 2.410156 2.234374 3.207031 5.722656 2.003906 8.785156-1.199219 3.0625-4.15625 5.078125-7.445313 5.078125zm0 0" fill="#985713"/><path d="m127.832031 284.59375 27.097657-4.882812c13.550781-2.4375 27.148437 4.066406 33.75 16.152343l8.121093 14.855469-27.097656 4.890625c-13.554687 2.4375-27.148437-4.066406-33.75-16.152344zm0 0" fill="#5e8569"/><path d="m312.105469 398.976562c0 39.765626-32.238281 72-72 72-39.765625 0-72-32.234374-72-72 0-39.765624 32.234375-72 72-72 39.761719 0 72 32.234376 72 72zm0 0" fill="#ff9326"/><g fill="#e68523"><path d="m200.496094 374.992188h16v16h-16zm0 0"/><path d="m232.496094 390.992188h16v16h-16zm0 0"/><path d="m208.496094 414.992188h16v16h-16zm0 0"/></g><path d="m240.496094 174.992188h-16v-123.289063l-67.886719-37.71875 7.773437-13.984375 72 40c2.539063 1.410156 4.113282 4.085938 4.113282 6.992188zm0 0" fill="#985713"/><path d="m224.496094 174.992188h16v152h-16zm0 0" fill="#d86447"/><path d="m272.496094 65.328125c28.480468-25.457031 71.882812-24.242187 98.894531 2.769531 27.011719 27.007813 28.226563 70.414063 2.769531 98.894532zm0 0" fill="#fd9226"/><path d="m295.3125 88.144531 56 56c5.890625-7.0625 9.136719-15.957031 9.183594-25.152343.082031-15.457032-8.796875-29.566407-22.769532-36.179688-13.972656-6.613281-30.511718-4.535156-42.414062 5.332031zm0 0" fill="#fd7422"/><path d="m384.496094 362.855469c-9.015625.011719-17.972656-1.433594-26.527344-4.28125-4.199219-1.394531-6.46875-5.929688-5.074219-10.125 1.398438-4.199219 5.933594-6.46875 10.128907-5.074219 13.945312 4.609375 29 4.609375 42.945312 0 4.195312-1.394531 8.730469.875 10.128906 5.074219 1.394532 4.195312-.875 8.730469-5.074218 10.125-8.554688 2.847656-17.511719 4.292969-26.527344 4.28125zm0 0" fill="#dc4d41"/></svg>