<svg height="464pt" viewBox="-59 0 464 464" width="464pt" xmlns="http://www.w3.org/2000/svg"><path d="m289.871094 464h-272.0625c-8.8125 0-15.964844-7.125-16-15.9375l-1.808594-432c-.015625-4.253906 1.660156-8.339844 4.664062-11.355469 3.003907-3.011719 7.082032-4.707031 11.335938-4.707031h273.871094c8.835937 0 16 7.164062 16 16v432c0 8.835938-7.164063 16-16 16zm0 0" fill="#ebebeb"/><path d="m1.871094 32h304v352h-304zm0 0" fill="#41dfd0"/><path d="m1.871094 224h304v160h-304zm0 0" fill="#dbdbdb"/><path d="m1.871094 384h40l30.402344-32h-70.402344zm0 0" fill="#85bc94"/><path d="m193.871094 224h-192v80h116zm0 0" fill="#4799cf"/><path d="m151.695312 64h4.351563c56.238281-.003906 101.828125 45.585938 101.824219 101.824219 0 27.003906-10.726563 52.90625-29.824219 72l-74.175781 74.175781-74.175782-74.175781c-19.09375-19.09375-29.824218-44.996094-29.824218-72-.003906-56.238281 45.585937-101.828125 101.824218-101.824219zm0 0" fill="#fbb540"/><g fill="#dbdbdb"><path d="m145.871094 166c0-20.953125-14.351563-38-32-38-17.648438 0-32 17.046875-32 38-.753906 16.117188 8.925781 30.898438 24 36.648438v61.351562l16 16v-77.351562c15.078125-5.75 24.757812-20.53125 24-36.648438zm0 0"/><path d="m201.871094 264v-73.015625c14.121094-3.664063 23.984375-16.398437 24-30.984375v-32h-16v32c-.015625 5.691406-3.066406 10.941406-8 13.777344v-45.777344h-16v45.847656c-4.945313-2.855468-7.996094-8.132812-8-13.847656v-32h-16v32c.054687 14.546875 9.914062 27.226562 24 30.863281v89.136719zm0 0"/><path d="m201.871094 264v-73.015625c14.121094-3.664063 23.984375-16.398437 24-30.984375v-32h-16v32c-.015625 5.691406-3.066406 10.941406-8 13.777344v-45.777344h-16v45.847656c-4.945313-2.855468-7.996094-8.132812-8-13.847656v-32h-16v32c.054687 14.546875 9.914062 27.226562 24 30.863281v89.136719zm0 0"/></g><path d="m189.753906 110.855469c-22.078125-13.28125-49.683594-13.28125-71.761718 0l-8.238282-13.710938c27.144532-16.328125 61.089844-16.328125 88.238282 0zm0 0" fill="#fbbd5c"/><path d="m289.871094 224-57.597656 64h73.597656v-64zm0 0" fill="#fd9226"/><path d="m145.871094 384h160v-48h-116.800782zm0 0" fill="#fbb540"/><path d="m305.871094 384v64c0 8.835938-7.164063 16-16 16h-272c-8.835938 0-16-7.164062-16-16v-64" fill="#ebebeb"/><path d="m173.871094 424c0 11.046875-8.953125 20-20 20-11.042969 0-20-8.953125-20-20s8.957031-20 20-20c11.046875 0 20 8.953125 20 20zm0 0" fill="#dbdbdb"/><path d="m329.871094 424h16v16h-16zm0 0" fill="#fbd699"/><path d="m329.871094 392h16v16h-16zm0 0" fill="#fbd699"/><path d="m329.871094 328h16v48h-16zm0 0" fill="#fbd699"/><path d="m109.871094 128.480469c-15.542969 3.453125-26.851563 16.890625-27.589844 32.800781.894531 12.660156 10.933594 22.753906 23.589844 23.71875 14.4375-1.363281 25.117187-14.046875 24-28.503906.726562-12.871094-7.589844-24.523438-20-28.015625zm0 0" fill="#e8e8e8"/><path d="m193.871094 184-3.742188-3.742188c-2.726562-2.730468-4.253906-6.425781-4.257812-10.28125v-41.976562h8zm0 0" fill="#e8e8e8"/><path d="m185.871094 280 8-8v-72l-8-8zm0 0" fill="#e8e8e8"/></svg>