<svg height="464pt" viewBox="-44 0 464 464" width="464pt" xmlns="http://www.w3.org/2000/svg"><path d="m320 360h-32v-29.695312c-.003906-2.734376 1.082031-5.355469 3.015625-7.289063s4.554687-3.019531 7.289063-3.015625h11.390624c2.734376-.003906 5.355469 1.082031 7.289063 3.015625s3.019531 4.554687 3.015625 7.289063zm0 0" fill="#d18d28"/><path d="m288 344h32v8h-32zm0 0" fill="#c38325"/><path d="m0 32h288v432h-288zm0 0" fill="#fbedbf"/><path d="m0 32 272-32v32zm0 0" fill="#fbd699"/><path d="m160 232h-32v-24c0-8.835938 7.164062-16 16-16s16 7.164062 16 16zm0 0" fill="#cbcbcb"/><path d="m232 432h144v32h-144zm0 0" fill="#a45e14"/><path d="m232 448h144v16h-144zm0 0" fill="#985713"/><path d="m368 432h-128v-24l8-16c0-22.089844 17.910156-40 40-40h32c22.089844 0 40 17.910156 40 40l8 16zm0 0" fill="#ea9d2d"/><path d="m296 400v-16h-47.199219c-.535156 2.632812-.804687 5.3125-.800781 8l-4 8zm0 0" fill="#fdaa31"/><path d="m312 384h16v16h-16zm0 0" fill="#fdaa31"/><path d="m240 328h-192v-8c0-53.019531 42.980469-96 96-96s96 42.980469 96 96zm0 0" fill="#dbdbdb"/><g fill="#f7ba61"><path d="m24 320h240v16h-240zm0 0"/><path d="m164 112h-52v-16h52c11.046875 0 20-8.953125 20-20v-4h16v4c-.023438 19.875-16.125 35.976562-36 36zm0 0"/><path d="m48.367188 137.144531c-1.492188-10.339843 1.578124-20.816406 8.417968-28.710937 6.839844-7.898438 16.769532-12.433594 27.214844-12.433594h12v16h-12c-11.046875 0-20 8.953125-20 20 0 .957031.066406 1.910156.199219 2.855469zm0 0"/><path d="m136 168h-52c-9.683594.035156-18.960938-3.867188-25.710938-10.808594l11.421876-11.199218c3.753906 3.855468 8.910156 6.023437 14.289062 6.007812h52zm0 0"/><path d="m200 208h-16v-20c0-11.046875-8.953125-20-20-20h-12v-16h12c19.875.023438 35.976562 16.125 36 36zm0 0"/></g><path d="m120 352h16v16h-16zm0 0" fill="#fbd699"/><path d="m152 352h16v16h-16zm0 0" fill="#fbd699"/><path d="m184 352h48v16h-48zm0 0" fill="#fbd699"/><path d="m172 271.488281c-4.378906-2.539062-9.089844-4.460937-13.992188-5.71875l4-15.503906c6.308594 1.628906 12.367188 4.109375 18.007813 7.375zm0 0" fill="#ebebeb"/><path d="m89.761719 305.992188-15.488281-4c8.199218-31.800782 36.886718-54.015626 69.726562-53.992188v16c-25.539062-.007812-47.851562 17.261719-54.238281 41.992188zm0 0" fill="#ebebeb"/><path d="m240 416h128v16h-128zm0 0" fill="#da922a"/></svg>