<svg height="463pt" viewBox="-11 0 463 463.992" width="463pt" xmlns="http://www.w3.org/2000/svg"><path d="m72.496094 160h32v296h-32zm0 0" fill="#ebebeb"/><path d="m72.496094 160h32v48h-32zm0 0" fill="#dbdbdb"/><path d="m176.496094 88c0 48.601562-39.398438 88-88 88-48.601563 0-88-39.398438-88-88s39.398437-88 88-88c48.601562 0 88 39.398438 88 88zm0 0" fill="#4799cf"/><path d="m97.496094 40h-25c-4.417969 0-8 3.582031-8 8v88h16v-34h17c17.121094 0 31-13.878906 31-31s-13.878906-31-31-31zm0 46h-17v-30h17c8.285156 0 15 6.714844 15 15s-6.714844 15-15 15zm0 0" fill="#f9f9f9"/><path d="m368.496094 328h-40l-46.398438-53.070312c-6.085937-6.957032-14.882812-10.941407-24.121094-10.929688h-145.480468c-10.074219 0-19.558594 4.742188-25.601563 12.800781l-38.398437 51.199219-48 20v60l40 16h384v-40c0-30.929688-25.070313-56-56-56zm0 0" fill="#fbb540"/><path d="m419.03125 360c-9.25-19.53125-28.921875-31.988281-50.535156-32h-8l11.574218 23.160156c2.714844 5.417969 8.253907 8.839844 14.3125 8.839844zm0 0" fill="#fd9226"/><path d="m48.496094 328h280l-46.398438-53.070312c-6.085937-6.957032-14.882812-10.941407-24.121094-10.929688h-145.480468c-10.074219 0-19.558594 4.742188-25.601563 12.800781zm0 0" fill="#c0f5f9"/><path d="m241.976562 264h-129.480468c-10.074219 0-19.558594 4.742188-25.601563 12.800781l-38.398437 51.199219h264l-46.398438-53.070312c-6.085937-6.957032-14.882812-10.941407-24.121094-10.929688zm0 0" fill="#b3e4e8"/><path d="m168.496094 263.992188h32v72h-32zm0 0" fill="#fbb540"/><path d="m208.496094 359.992188h48v16h-48zm0 0" fill="#ea9d2d"/><path d="m424.496094 392h-424v16l40 16h384c8.835937 0 16-7.164062 16-16s-7.164063-16-16-16zm0 0" fill="#ebebeb"/><path d="m128.496094 423.992188c0 22.089843-17.910156 40-40 40s-40-17.910157-40-40c0-22.089844 17.910156-40 40-40s40 17.910156 40 40zm0 0" fill="#a8a8a8"/><path d="m88.496094 440c-8.835938 0-16-7.164062-16-16s7.164062-16 16-16c8.835937 0 16 7.164062 16 16s-7.164063 16-16 16zm0-16" fill="#eaeae8"/><path d="m376.457031 423.992188c0 22.089843-17.910156 40-40 40-22.09375 0-40-17.910157-40-40 0-22.089844 17.90625-40 40-40 22.089844 0 40 17.910156 40 40zm0 0" fill="#a8a8a8"/><path d="m352.496094 423.992188c0 8.835937-7.164063 16-16 16-8.835938 0-16-7.164063-16-16 0-8.835938 7.164062-16 16-16 8.835937 0 16 7.164062 16 16zm0 0" fill="#eaeae8"/><path d="m152.496094 263.992188h16v64h-16zm0 0" fill="#aedee2"/></svg>