<svg height="472pt" viewBox="0 -52 472 472" width="472pt" xmlns="http://www.w3.org/2000/svg"><path d="m256 152h-256v-16c0-17.671875 14.328125-32 32-32h208c8.835938 0 16 7.164062 16 16zm0 0" fill="#70400e"/><path d="m159.992188 104.308594 184.4375-96.164063 66.574218 127.683594-184.433594 96.167969zm0 0" fill="#f3af3e"/><path d="m174.792969 132.683594 184.433593-96.167969 14.792969 28.375-184.433593 96.167969zm0 0" fill="#d18d28"/><path d="m224 112h208v144h-208zm0 0" fill="#6cbae5"/><path d="m400 208c0 8.835938-7.164062 16-16 16s-16-7.164062-16-16 7.164062-16 16-16 16 7.164062 16 16zm0 0" fill="#4799cf"/><path d="m0 152h256c8.835938 0 16 7.164062 16 16v168c0 17.671875-14.328125 32-32 32h-208c-17.671875 0-32-14.328125-32-32zm0 0" fill="#a45e14"/><path d="m0 176h24v16h-24zm0 0" fill="#b46717"/><path d="m40 176h16v16h-16zm0 0" fill="#b46717"/><path d="m72 176h16v16h-16zm0 0" fill="#b46717"/><path d="m48 0h176v152h-176zm0 0" fill="#8dc79d"/><path d="m168.046875 32h-64.09375c-5.640625 10.027344-13.925781 18.3125-23.953125 23.953125v96.046875h112v-96.046875c-10.027344-5.640625-18.3125-13.925781-23.953125-23.953125zm0 0" fill="#aae5c8"/><path d="m360 280h48v16h-48zm0 0" fill="#c0f5f9"/><path d="m424 280h16v16h-16zm0 0" fill="#c0f5f9"/><path d="m456 280h16v16h-16zm0 0" fill="#c0f5f9"/><g fill="#70400e"><path d="m120 328h-32c-4.417969 0-8-3.582031-8-8v-24h16v16h24zm0 0"/><path d="m192 328h-32v-16h24v-24h16v32c0 4.417969-3.582031 8-8 8zm0 0"/><path d="m200 248h-16v-24h-24v-16h32c4.417969 0 8 3.582031 8 8zm0 0"/><path d="m96 248h-16v-32c0-4.417969 3.582031-8 8-8h32v16h-24zm0 0"/><path d="m128 304h-24v-24h24v8h8v16zm0 0"/><path d="m144 280h32v24h-32zm0 0"/><path d="m176 272h-40v-24h16v-16h24zm0 0"/><path d="m128 232h-24v32h16v-16h8zm0 0"/></g><path d="m272 240h24c13.253906 0 24 10.746094 24 24s-10.746094 24-24 24h-24zm0 0" fill="#985713"/><path d="m376 208c0 8.835938-7.164062 16-16 16s-16-7.164062-16-16 7.164062-16 16-16 16 7.164062 16 16zm0 0" fill="#f3af3e"/><path d="m272 240h16v48h-16zm0 0" fill="#834b10"/></svg>