<svg height="472pt" viewBox="0 -88 472.01627 472" width="472pt" xmlns="http://www.w3.org/2000/svg"><path d="m272 208.007812 56 40-8 48h32l16-56-24-32 1.800781-19.085937-75.296875 3.085937zm0 0" fill="#f9adb1"/><path d="m176 208.007812 40 40-16 48h32l24-48-24-40 1.910156-8.960937-52.414062.960937zm0 0" fill="#f9adb1"/><path d="m360 .0078125h-160.167969c-35.476562.0039063-70.042969 11.2460935-98.734375 32.1132815-5.800781-5.203125-13.308594-8.089844-21.097656-8.113282h-64l52.433594 39.320313c-7.292969 9.164063-13.605469 19.070313-18.832032 29.550781l-25.601562 51.128906h-24v32c0 17.671876 14.328125 32 32 32h328c57.4375 0 104-46.5625 104-104s-46.5625-103.9999995-104-103.9999995zm0 0" fill="#ffb1b5"/><path d="m120 168.007812v72l-24 56h40l40-56v-72zm0 0" fill="#ffb1b5"/><path d="m108 120.007812c0 6.628907-5.371094 12-12 12s-12-5.371093-12-12c0-6.628906 5.371094-12 12-12s12 5.371094 12 12zm0 0" fill="#de9a9e"/><path d="m368 120.007812v80l40 32v64h32l24-64v-120zm0 0" fill="#ffb1b5"/><path d="m456 144.007812v-24l-96 8v65.664063c0 4.007813 1.824219 7.792969 4.953125 10.296875l4.453125 3.566406c38.414062-3.480468 71.742188-27.933594 86.59375-63.527344zm0 0" fill="#f9adb1"/><path d="m368 120.007812v72.3125c.003906 4.859376 2.214844 9.453126 6.007812 12.488282l33.992188 27.199218v64h32l24-64v-120zm0 0" fill="#ffb1b5"/><path d="m415.824219 132.527344c-20.261719.003906-39.636719-8.308594-53.601563-22.992188-3.050781-3.195312-2.9375-8.257812.257813-11.3125 3.195312-3.050781 8.257812-2.9375 11.3125.257813 21.558593 22.679687 57.21875 24.164062 80.589843 3.359375l4.320313-3.824219c3.316406-2.929687 8.375-2.617187 11.304687.695313 2.929688 3.316406 2.617188 8.375-.695312 11.304687l-4.320312 3.824219c-13.546876 12.042968-31.042969 18.691406-49.167969 18.6875zm0 0" fill="#de9a9e"/><path d="m184 208.007812h-8.664062v-40l8.664062.664063zm0 0" fill="#f9adb1"/></svg>