<svg height="464pt" viewBox="-8 0 464 464" width="464pt" xmlns="http://www.w3.org/2000/svg"><path d="m448 96h-392v24l392 8zm0 0" fill="#5f3a28"/><path d="m448 64h-392v-24l392-8zm0 0" fill="#8f563b"/><path d="m56 56h392v8h-392zm0 0" fill="#744630"/><path d="m56 96h392v8h-392zm0 0" fill="#744630"/><path d="m96 248h-78.777344l6.777344-8c0-35.347656 28.652344-64 64-64l8-.664062zm0 0" fill="#f3af3e"/><path d="m88 240h-32c0-17.671875 14.328125-32 32-32zm0 0" fill="#da922a"/><path d="m312 240v8l-76.710938 1.128906-3.289062-9.128906 2.617188-15.679688c3.019531-18.128906 19.683593-30.734374 37.949218-28.703124 22.453125 2.496093 39.433594 21.472656 39.433594 44.0625zm0 0" fill="#f3f3f0"/><path d="m229.910156 208c-18.335937 1.074219-33.769531 14.105469-37.910156 32v8l80.0625 1.238281-4.246094-9.238281c-4.136718-17.894531-19.570312-30.921875-37.90625-32zm0 0" fill="#fbd699"/><path d="m168 24c-8.671875-.003906-15.769531 6.90625-16 15.574219l-32 .425781c0-8.835938-7.164062-16-16-16s-16 7.164062-16 16v208h96v-208c0-8.835938-7.164062-16-16-16zm0 0" fill="#ea9d2d"/><path d="m152 240h-32v-224c0-8.835938 7.164062-16 16-16s16 7.164062 16 16zm0 0" fill="#f3af3e"/><path d="m80 424h160v40h-160zm0 0" fill="#dbdbdb"/><path d="m80 424h160v24h-160zm0 0" fill="#cbcbcb"/><path d="m232.558594 432h-145.117188c-27.363281-.019531-50.703125-19.804688-55.203125-46.792969l-20.238281-113.207031-5.320312-3.542969c-4.167969-2.777343-6.6718755-7.449219-6.679688-12.457031v-16h320v16c0 5.015625-2.507812 9.699219-6.679688 12.480469-3.386718 2.269531-5.699218 5.824219-6.398437 9.839843l-19.121094 106.886719c-4.503906 27.003907-27.867187 46.792969-55.242187 46.792969zm0 0" fill="#e4e4e2"/><path d="m280 312h-48c-4.417969 0-8 3.582031-8 8v24h-32v-24c0-4.417969-3.582031-8-8-8h-48c-4.417969 0-8 3.582031-8 8v24h-32v-24c0-4.417969-3.582031-8-8-8h-48c-4.417969 0-8 3.582031-8 8v24h-7.152344l2.855469 16h12.296875c4.417969 0 8-3.582031 8-8v-24h32v24c0 4.417969 3.582031 8 8 8h48c4.417969 0 8-3.582031 8-8v-24h32v24c0 4.417969 3.582031 8 8 8h48c4.417969 0 8-3.582031 8-8v-24h32v24c0 4.417969 3.582031 8 8 8h12.296875l2.855469-16h-7.152344v-24c0-4.417969-3.582031-8-8-8zm0 0" fill="#dc4d41"/><g fill="#ebebeb"><path d="m6.679688 268.457031 5.320312 3.542969 1.425781 8h50.574219v-16h-61.558594c1.089844 1.761719 2.53125 3.28125 4.238282 4.457031zm0 0"/><path d="m80 264h16v16h-16zm0 0"/></g></svg>