<svg height="472pt" viewBox="-3 0 471 472" width="472pt" xmlns="http://www.w3.org/2000/svg"><path d="m448.5 424h16v48h-16zm0 0" fill="#a45e14"/><path d="m.5 424h16v48h-16zm0 0" fill="#a45e14"/><path d="m448.5 424h16v32h-16zm0 0" fill="#834b10"/><path d="m.5 424h16v32h-16zm0 0" fill="#834b10"/><path d="m368.5 200h-104l-32 24-32-24h-104c-17.671875 0-32-14.328125-32-32v-136c0-17.671875 14.328125-32 32-32h272c17.671875 0 32 14.328125 32 32v136c0 17.671875-14.328125 32-32 32zm0 0" fill="#fbd699"/><path d="m264.5 136h32v16h-32zm0 0" fill="#e4c28b"/><path d="m104.5 368h256c8.835938 0 16 7.164062 16 16v80h-288v-80c0-8.835938 7.164062-16 16-16zm0 0" fill="#ebebeb"/><path d="m448.5 288c-8.835938 0-16 7.164062-16 16v104h-56v32h88v-152zm0 0" fill="#dc4d41"/><path d="m32.5 408v-104c0-8.835938-7.164062-16-16-16h-16v152h88v-32zm0 0" fill="#dc4d41"/><path d="m224.5 296h16v61h-16zm0 0" fill="#cbcbcb"/><path d="m224.5 336h16v16h-16zm0 0" fill="#c3c3c3"/><path d="m232.5 352h-24v19.335938h48v-19.335938zm0 0" fill="#a45e14"/><path d="m148.003906 368h-23.007812c-7.34375.003906-13.746094-4.996094-15.527344-12.121094l-4.96875-19.878906h64l-4.96875 19.878906c-1.78125 7.125-8.183594 12.125-15.527344 12.121094zm0 0" fill="#f3f3f3"/><path d="m340.003906 368h-23.007812c-7.34375.003906-13.746094-4.996094-15.527344-12.121094l-4.96875-19.878906h64l-4.96875 19.878906c-1.78125 7.125-8.183594 12.125-15.527344 12.121094zm0 0" fill="#f3f3f3"/><g fill="#e4c28b"><path d="m296.5 120h-16c0-8.835938-7.164062-16-16-16v-16c17.671875 0 32 14.328125 32 32zm0 0"/><path d="m328.5 120h-16c-.039062-26.472656-21.472656-47.929688-47.945312-48h-.796876l-.25-16h1.007813c35.316406.066406 63.925781 28.683594 63.984375 64zm0 0"/><path d="m344.5 118.527344c-.847656-44.164063-37.300781-79.300782-81.464844-78.527344l-.3125-16h1.882813c45.414062.050781 84.578125 31.921875 93.863281 76.375 1.226562 5.878906 1.90625 11.855469 2.03125 17.855469zm0 0"/><path d="m312.5 136h16v16h-16zm0 0"/><path d="m344.5 136h16v16h-16zm0 0"/></g><path d="m88.5 392h48v16h-48zm0 0" fill="#dbdbdb"/><path d="m152.5 392h16v16h-16zm0 0" fill="#dbdbdb"/><path d="m184.5 368 48 48 48-48zm0 0" fill="#dc4d41"/><path d="m256.5 280c0 13.253906-10.746094 24-24 24s-24-10.746094-24-24 10.746094-24 24-24 24 10.746094 24 24zm0 0" fill="#fbd699"/><path d="m248.5 280c0 8.835938-7.164062 16-16 16s-16-7.164062-16-16 7.164062-16 16-16 16 7.164062 16 16zm0 0" fill="#85bc94"/><path d="m161.8125 360h-50.625c2.851562 4.933594 8.109375 7.984375 13.808594 8h23.007812c5.699219-.015625 10.957032-3.066406 13.808594-8zm0 0" fill="#e8e8e8"/><path d="m353.8125 360h-50.625c1.578125 2.726562 3.925781 4.921875 6.753906 6.3125 2.5 1.089844 5.199219 1.664062 7.925782 1.6875h22.136718c5.699219-.015625 10.957032-3.066406 13.808594-8zm0 0" fill="#e8e8e8"/><path d="m.5 424h88v16h-88zm0 0" fill="#c7463b"/><path d="m376.5 424h88v16h-88zm0 0" fill="#c7463b"/><path d="m244.957031 109.96875-21.488281 20.800781-46.777344-48.371093 21.496094-20.796876-31.199219-32.242187-21.488281 20.800781c-14.84375 14.347656-15.238281 38.011719-.886719 52.847656l57.167969 59.105469c14.347656 14.839844 38.011719 15.234375 52.847656.878907l21.496094-20.800782zm0 0" fill="#4799cf"/><path d="m254.644531 162.996094-31.179687-32.234375 21.496094-20.789063 31.179687 32.234375zm0 0" fill="#6cbae5"/><path d="m176.589844 82.503906-31.179688-32.238281 21.496094-20.789063 31.179688 32.238282zm0 0" fill="#6cbae5"/></svg>