<svg height="472pt" viewBox="-4 0 472 472.00801" width="472pt" xmlns="http://www.w3.org/2000/svg"><path d="m464.003906 120.007812h-463.99999975v-16l63.99999975-103.9999995h336l64 103.9999995zm0 0" fill="#eaeae8"/><path d="m128.003906 104.007812h336v96h-336zm0 0" fill="#c3b895"/><path d="m128.003906 200.007812h336v264h-336zm0 0" fill="#ebebeb"/><path d="m.00390625 112.007812h127.99999975v360h-127.99999975zm0 0" fill="#834b10"/><path d="m.00390625 272.007812h135.99999975v200h-135.99999975zm0 0" fill="#e4e4e2"/><path d="m.00390625 272.007812h63.99999975v200h-63.99999975zm0 0" fill="#ebebeb"/><path d="m24.003906 327.992188h16v16h-16zm0 0" fill="#cdcdcd"/><path d="m88.003906 327.992188h16v16h-16zm0 0" fill="#cdcdcd"/><path d="m.00390625 392.007812h111.99999975v80h-111.99999975zm0 0" fill="#f7ba61"/><path d="m64.003906 392.007812h64v80h-64zm0 0" fill="#dea757"/><path d="m64.003906 207.992188c35.347656 0 64 28.652343 64 64h-127.99999975c0-35.347657 28.65234375-64 63.99999975-64zm0 0" fill="#b6534f"/><path d="m56.003906 207.992188-1.6875 3.375c-9.414062 18.824218-14.316406 39.578124-14.3125 60.625h48c.003906-21.046876-4.898437-41.800782-14.3125-60.625l-1.6875-3.375zm0 0" fill="#e06661"/><path d="m128.003906 200.007812h336v216h-336zm0 0" fill="#fbedbf"/><path d="m389.316406 304.222656c-7.882812 1.59375-13.492187 8.601563-13.3125 16.640625v39.128907h-32v24h48c8.835938 0 16-7.164063 16-16v-48c0-4.710938-2.082031-9.183594-5.683594-12.222657-3.601562-3.039062-8.359374-4.335937-13.003906-3.546875zm0 0" fill="#f7ba61"/><path d="m392.003906 287.992188c-13.253906 0-24-10.746094-24-24 0-13.253907 10.746094-24 24-24s24 10.746093 24 24c0 13.253906-10.746094 24-24 24zm0 0" fill="#f7ba61"/><path d="m416.003906 391.992188c13.253906 0 24-10.746094 24-24v-32c0-4.417969-3.582031-8-8-8-4.417968 0-8 3.582031-8 8v32c0 4.417968-3.582031 8-8 8h-32c-4.417968 0-8 3.582031-8 8v32h16v-24zm0 0" fill="#ea6b65"/><path d="m202.691406 304.222656c7.882813 1.59375 13.492188 8.601563 13.3125 16.640625v39.128907h40v24h-56c-8.835937 0-16-7.164063-16-16v-48c0-4.710938 2.082032-9.183594 5.683594-12.222657 3.601562-3.039062 8.359375-4.335937 13.003906-3.546875zm0 0" fill="#f7ba61"/><path d="m200.003906 287.992188c-13.253906 0-24-10.746094-24-24 0-13.253907 10.746094-24 24-24s24 10.746093 24 24c0 13.253906-10.746094 24-24 24zm0 0" fill="#f7ba61"/><path d="m208.003906 375.992188h-32c-4.417968 0-8-3.582032-8-8v-32c0-4.417969-3.582031-8-8-8-4.417968 0-8 3.582031-8 8v32c0 13.253906 10.746094 24 24 24h24v24h16v-32c0-4.417969-3.582031-8-8-8zm0 0" fill="#ea6b65"/><g fill="#ea9d2d"><path d="m288.003906 256.007812h16v64h-16zm0 0"/><path d="m304.003906 295.992188h-16c-17.671875 0-32-14.328126-32-32h16c0 8.835937 7.164063 16 16 16h16c8.835938 0 16-7.164063 16-16h16c0 17.671874-14.328125 32-32 32zm0 0"/><path d="m296.003906 239.992188c-3.25.019531-6.1875-1.929688-7.433594-4.933594-1.246093-3-.554687-6.457032 1.753907-8.746094 2.296875-2.273438 5.738281-2.9375 8.71875-1.6875.96875.40625 1.863281.976562 2.640625 1.6875 3.09375 3.152344 3.09375 8.203125 0 11.359375-.78125.699219-1.671875 1.269531-2.640625 1.679687-.960938.40625-1.992188.625-3.039063.640626zm0 0"/><path d="m328.003906 247.992188c-1.046875-.015626-2.078125-.234376-3.039062-.640626-.96875-.410156-1.859375-.980468-2.640625-1.679687-3.09375-3.15625-3.09375-8.207031 0-11.359375.777343-.710938 1.671875-1.28125 2.640625-1.6875 2.980468-1.25 6.421875-.585938 8.71875 1.6875 2.308594 2.289062 3 5.746094 1.753906 8.746094-1.246094 3.003906-4.183594 4.953125-7.433594 4.933594zm0 0"/><path d="m264.003906 247.992188c-3.769531-.039063-6.992187-2.730469-7.699218-6.433594-.707032-3.703125 1.292968-7.390625 4.785156-8.816406 3.488281-1.425782 7.5-.195313 9.589844 2.945312 2.085937 3.140625 1.671874 7.316406-.996094 9.984375-1.535156 1.457031-3.5625 2.285156-5.679688 2.320313zm0 0"/></g><path d="m240.003906 344.007812h112v72h-112zm0 0" fill="#eaeae8"/><path d="m264.003906 368.007812h16v48h-16zm0 0" fill="#dbdbdb"/><path d="m312.003906 368.007812h16v48h-16zm0 0" fill="#dbdbdb"/><path d="m232.003906 360.007812h8v24h-8zm0 0" fill="#e6ad5a"/><path d="m352.003906 360.007812h8v24h-8zm0 0" fill="#e6ad5a"/><path d="m296.003906 335.992188c-4.417968 0-8-3.582032-8-8v-16c0-4.417969 3.582032-8 8-8 4.417969 0 8 3.582031 8 8v16c0 4.417968-3.582031 8-8 8zm0 0" fill="#cbcbcb"/><path d="m328.003906 343.992188h-64c0-17.671876 14.328125-32 32-32s32 14.328124 32 32zm0 0" fill="#dbdbdb"/><path d="m265.132812 335.992188c-.714843 2.609374-1.09375 5.296874-1.128906 8h64c-.035156-2.703126-.414062-5.390626-1.128906-8zm0 0" fill="#cbcbcb"/><path d="m128.003906 416.007812h336v56h-336zm0 0" fill="#834b10"/><path d="m.00390625 103.992188h95.99999975v48c0 26.507812-21.488281 48-48 48-26.507812 0-47.99999975-21.492188-47.99999975-48zm0 0" fill="#cbcbcb"/><path d="m96.003906 103.992188h96v48c0 26.507812-21.488281 48-48 48-26.507812 0-48-21.492188-48-48zm0 0" fill="#e06661"/><path d="m272.003906 103.992188h96v48c0 26.507812-21.488281 48-48 48-26.507812 0-48-21.492188-48-48zm0 0" fill="#e06661"/><path d="m368.003906 103.992188h96v48c0 26.507812-21.488281 48-48 48-26.507812 0-48-21.492188-48-48zm0 0" fill="#cbcbcb"/><path d="m128.003906.0078125-32 103.9999995h96v-103.9999995zm0 0" fill="#ea6b65"/><path d="m344.003906.0078125 24 103.9999995h-96v-103.9999995zm0 0" fill="#ea6b65"/><path d="m336.011719 104c0 57.4375-46.5625 104-104 104s-104-46.5625-104-104 46.5625-104 104-104 104 46.5625 104 104zm0 0" fill="#fbb540"/><path d="m296.003906 151.992188h-40v-120c24.160156 9.664062 40 33.0625 40 59.078124zm0 0" fill="#ebebeb"/><path d="m288.003906 191.519531v-39.527343h-32v53.144531c11.355469-2.707031 22.175782-7.3125 32-13.617188zm0 0" fill="#dbdbdb"/><path d="m232.003906 87.992188h-64v24c0 7.078124 11.121094 13.375 16 17.769531v66.476562c10.027344 5.191407 20.835938 8.703125 32 10.402344v-76.878906c4.871094-4.394531 16-10.691407 16-17.769531zm0 0" fill="#e4e4e2"/><path d="m200.003906 127.992188c-4.417968 0-8-3.582032-8-8v-72c0-4.417969 3.582032-8 8-8 4.417969 0 8 3.582031 8 8v72c0 4.417968-3.582031 8-8 8zm0 0" fill="#dbdbdb"/><path d="m232.003906 111.992188h-16v-64c0-4.417969 3.582032-8 8-8 4.417969 0 8 3.582031 8 8zm0 0" fill="#e4e4e2"/><path d="m184.003906 111.992188h-16v-64c0-4.417969 3.582032-8 8-8 4.417969 0 8 3.582031 8 8zm0 0" fill="#e4e4e2"/><path d="m256.011719 151.992188h32v8h-32zm0 0" fill="#cbcbcb"/></svg>