<svg height="464pt" viewBox="0 -48 464 464" width="464pt" xmlns="http://www.w3.org/2000/svg"><path d="m320 256.121094 16 40-8 72h32l16-72v-40l.328125-10.277344-55.328125 2.277344zm0 0" fill="#e4e4e2"/><path d="m216 256.121094 8 48-8 64h24l24-64v-48l-4.695312-10.535156-43.304688 2.535156zm0 0" fill="#e4e4e2"/><path d="m384 224.121094v32l40 40-8 72h32l16-72v-72zm0 0" fill="#ebebeb"/><path d="m16 32.121094h88v88h-56c-26.507812 0-48-21.488282-48-48v-24c0-8.835938 7.164062-16 16-16zm0 0" fill="#f5d3bd"/><path d="m400 56.121094h-216c0-17.671875-14.328125-32-32-32-2.953125.042968-5.886719.5-8.710938 1.351562-3.222656-15.464844-17.25-26.265625-33.027343-25.425781-15.777344.835937-28.582031 13.0625-30.144531 28.785156-1.5625 15.722657 8.582031 30.230469 23.882812 34.160157v113.128906c0 44.183594 35.816406 80 80 80h240c22.089844 0 40-17.90625 40-40v-96c0-35.34375-28.652344-64-64-64zm0 0" fill="#ebebeb"/><path d="m136 240.121094 24 64-16 64h32l16-64v-48zm0 0" fill="#ebebeb"/><path d="m72 68.121094c0 6.628906-5.371094 12-12 12s-12-5.371094-12-12c0-6.625 5.371094-12 12-12s12 5.375 12 12zm0 0" fill="#8d7761"/><g fill="#dbdbdb"><path d="m256 144.121094c-12.242188-.042969-23.386719-7.070313-28.703125-18.09375-3.605469 1.382812-7.433594 2.09375-11.296875 2.09375-17.671875 0-32-14.324219-32-32h16c-.03125 6.347656 3.710938 12.109375 9.527344 14.65625 5.8125 2.550781 12.582031 1.402344 17.234375-2.917969 2.265625-2.082031 5.519531-2.679687 8.378906-1.535156 2.855469 1.140625 4.804687 3.816406 5.011719 6.886719.53125 8.359374 7.46875 14.871093 15.847656 14.871093s15.316406-6.511719 15.847656-14.871093c.207032-3.070313 2.15625-5.746094 5.011719-6.886719 2.859375-1.144531 6.113281-.546875 8.378906 1.535156 4.652344 4.320313 11.421875 5.46875 17.234375 2.917969 5.816406-2.546875 9.558594-8.308594 9.527344-14.65625h16c0 17.675781-14.328125 32-32 32-3.863281 0-7.691406-.710938-11.296875-2.09375-5.316406 11.023437-16.460937 18.050781-28.703125 18.09375zm0 0"/><path d="m368 208.121094c-12.242188-.042969-23.386719-7.070313-28.703125-18.09375-3.605469 1.382812-7.433594 2.09375-11.296875 2.09375-17.671875 0-32-14.324219-32-32h16c-.03125 6.347656 3.710938 12.109375 9.527344 14.65625 5.8125 2.550781 12.582031 1.402344 17.234375-2.917969 2.265625-2.082031 5.519531-2.679687 8.378906-1.535156 2.855469 1.140625 4.804687 3.816406 5.011719 6.886719.53125 8.359374 7.46875 14.871093 15.847656 14.871093s15.316406-6.511719 15.847656-14.871093c.207032-3.070313 2.15625-5.746094 5.011719-6.886719 2.859375-1.144531 6.113281-.546875 8.378906 1.535156 4.652344 4.320313 11.421875 5.46875 17.234375 2.917969 5.816406-2.546875 9.558594-8.308594 9.527344-14.65625h16c0 17.675781-14.328125 32-32 32-3.863281 0-7.691406-.710938-11.296875-2.09375-5.316406 11.023437-16.460937 18.050781-28.703125 18.09375zm0 0"/><path d="m296.167969 240.121094c-12.242188-.042969-23.386719-7.070313-28.703125-18.09375-3.605469 1.382812-7.433594 2.09375-11.296875 2.09375-9.273438.011718-18.09375-4.007813-24.167969-11.015625-7.007812 8.125-17.644531 12.160156-28.28125 10.734375-10.632812-1.429688-19.828125-8.128906-24.445312-17.8125-3.597657 1.382812-7.417969 2.089844-11.273438 2.09375-17.671875 0-32-14.324219-32-32h16c-.03125 6.347656 3.710938 12.109375 9.527344 14.65625 5.8125 2.550781 12.582031 1.402344 17.234375-2.917969 2.265625-2.082031 5.519531-2.679687 8.378906-1.535156 2.855469 1.140625 4.804687 3.816406 5.011719 6.886719.53125 8.359374 7.46875 14.871093 15.847656 14.871093s15.316406-6.511719 15.847656-14.871093c.027344-.34375.078125-.6875.152344-1.023438l.328125-1.640625c.800781-4.046875 4.546875-6.824219 8.652344-6.410156 4.105469.414062 7.21875 3.882812 7.195312 8.007812-.03125 6.347657 3.710938 12.105469 9.519531 14.65625 5.8125 2.550781 12.582032 1.40625 17.234376-2.910156 2.261718-2.078125 5.519531-2.675781 8.375-1.539063 2.855468 1.140626 4.804687 3.816407 5.015624 6.882813.5 8.390625 7.449219 14.9375 15.851563 14.9375 8.40625 0 15.351563-6.546875 15.851563-14.9375l16 1.09375c-1.183594 16.738281-15.074219 29.730469-31.855469 29.792969zm0 0"/><path d="m464 193.890625v-19.265625l-29.3125-19.664062c-6.6875-4.441407-10.699219-11.941407-10.6875-19.96875v-30.871094h-16v30.871094c-.023438 13.375 6.660156 25.871093 17.800781 33.273437zm0 0"/></g><path d="m136 80.121094 64 8-9.648438 12.066406c-13.035156 16.292969-35.6875 21.269531-54.351562 11.933594zm0 0" fill="#eecdb8"/></svg>