<svg height="440pt" viewBox="0 -23 440 439" width="440pt" xmlns="http://www.w3.org/2000/svg"><path d="m336 224.5c0 92.785156-75.214844 168-168 168s-168-75.214844-168-168 75.214844-168 168-168 168 75.214844 168 168zm0 0" fill="#eaeae8"/><path d="m168 56.5c-92.785156 0-168 75.214844-168 168s75.214844 168 168 168 168-75.214844 168-168-75.214844-168-168-168zm136 168c.015625 30.535156-10.296875 60.179688-29.265625 84.113281l-190.847656-190.847656c40.882812-32.308594 96.640625-38.386719 143.527343-15.652344 46.882813 22.734375 76.636719 70.28125 76.585938 122.386719zm-272 0c-.015625-30.535156 10.296875-60.179688 29.265625-84.113281l190.847656 190.847656c-40.882812 32.308594-96.640625 38.386719-143.527343 15.652344-46.882813-22.734375-76.636719-70.28125-76.585938-122.386719zm0 0" fill="#f55648"/><path d="m72 200.5h192c4.417969 0 8 3.582031 8 8v32c0 4.417969-3.582031 8-8 8h-192zm0 0" fill="#dbdbdb"/><path d="m72 200.5h64v48h-64zm0 0" fill="#cd9c7a"/><path d="m264 248.5h-24v-48h24c4.417969 0 8 3.582031 8 8v32c0 4.417969-3.582031 8-8 8zm0 0" fill="#fd9226"/><g fill="#c3c3c3"><path d="m296 248.5v-16c21.382812.011719 41.359375-10.664062 53.222656-28.457031l13.296875 8.914062c-14.835937 22.222657-39.796875 35.558594-66.519531 35.542969zm0 0"/><path d="m374.015625 186.277344-15.601563-3.554688c1.054688-4.667968 1.585938-9.4375 1.585938-14.222656v-16c0-17.671875 14.328125-32 32-32h16c8.835938 0 16-7.164062 16-16v-16h16v16c0 17.671875-14.328125 32-32 32h-16c-8.835938 0-16 7.164062-16 16v16c.003906 5.980469-.664062 11.941406-1.984375 17.777344zm0 0"/><path d="m424 40.5h16v32h-16zm0 0"/><path d="m424 .5h16v24h-16zm0 0"/><path d="m376 16.5h16v32h-16zm0 0"/><path d="m296 216.5v-16c17.671875 0 32-14.328125 32-32v-48c0-17.671875 14.328125-32 32-32 8.835938 0 16-7.164062 16-16v-8h16v8c0 17.671875-14.328125 32-32 32-8.835938 0-16 7.164062-16 16v48c-.027344 26.5-21.5 47.972656-48 48zm0 0"/></g><path d="m72 232.5h64v16h-64zm0 0" fill="#bd9070"/><path d="m136 232.5h104v16h-104zm0 0" fill="#cbcbcb"/><path d="m240 232.5h32v8c0 4.417969-3.582031 8-8 8h-24zm0 0" fill="#ee8a24"/></svg>