<svg height="462pt" viewBox="-47 0 462 462.632" width="462pt" xmlns="http://www.w3.org/2000/svg"><path d="m352.316406 318.632812h-40c-22.082031.027344-39.972656 17.917969-40 40 0 4.417969-3.582031 8-8 8h-8c-4.417968 0-8-3.582031-8-8v-134.632812h-128v134.632812c0 4.417969-3.582031 8-8 8h-8c-4.417968 0-8-3.582031-8-8-.027344-22.082031-17.921875-39.972656-40-40h-40c-8.835937 0-16 7.164063-16 16 0 8.835938 7.164063 16 16 16h40c4.417969 0 8 3.582032 8 8 .027344 22.078126 17.917969 39.972657 40 40h8c22.089844 0 40-17.910156 40-40v33.367188c.003906 21.335938-17.292968 38.636719-38.632812 38.632812h-97.367188c-8.835937 0-16 7.164063-16 16 0 8.835938 7.164063 16 16 16h97.367188c39.007812 0 70.632812-31.625 70.632812-70.632812 0 39.007812 31.621094 70.632812 70.632813 70.632812h97.367187c8.835938 0 16-7.164062 16-16 0-8.835937-7.164062-16-16-16h-97.367187c-21.339844.003907-38.636719-17.296874-38.632813-38.632812v-33.367188c.027344 22.078126 17.917969 39.972657 40 40h8c22.078125-.027343 39.972656-17.921874 40-40 0-4.417968 3.582032-8 8-8h40c8.835938 0 16-7.164062 16-16 0-8.835937-7.164062-16-16-16zm0 0" fill="#ebebeb"/><path d="m176.316406 296c0 13.253906-10.746094 24-24 24s-24-10.746094-24-24 10.746094-24 24-24 24 10.746094 24 24zm0 0" fill="#f9f9f9"/><path d="m240.316406 296c0 13.253906-10.746094 24-24 24s-24-10.746094-24-24 10.746094-24 24-24 24 10.746094 24 24zm0 0" fill="#f9f9f9"/><path d="m160.316406 296c0 4.417969-3.582031 8-8 8-4.417968 0-8-3.582031-8-8s3.582032-8 8-8c4.417969 0 8 3.582031 8 8zm0 0" fill="#a8a8a8"/><path d="m224.316406 296c0 4.417969-3.582031 8-8 8-4.417968 0-8-3.582031-8-8s3.582032-8 8-8c4.417969 0 8 3.582031 8 8zm0 0" fill="#a8a8a8"/><path d="m184.316406 352c-4.417968 0-8 3.582031-8 8v64c.023438.15625.054688.3125.09375.464844 5.207032-10.027344 7.917969-21.164063 7.90625-32.464844-.015625 11.300781 2.695313 22.4375 7.902344 32.464844.042969-.152344.074219-.308594.097656-.464844v-64c0-4.417969-3.582031-8-8-8zm0 0" fill="#e2e2e2"/><path d="m272.316406 224-75.367187 20.550781c-8.269531 2.257813-16.996094 2.257813-25.265625 0l-75.367188-20.550781 44.230469-148.304688c7.710937-28.628906 22.804687-54.730468 43.769531-75.695312 20.964844 20.964844 36.054688 47.066406 43.769532 75.695312zm0 0" fill="#e4e4e4"/><path d="m184.316406 0-96.175781 103.046875c-8.824219 9.453125-8.574219 24.199219.566406 33.34375l95.609375 95.609375 95.609375-95.609375c9.140625-9.144531 9.390625-23.890625.566407-33.34375zm0 0" fill="#ebebeb"/><path d="m.316406 280h16v16h-16zm0 0" fill="#cdcdcd"/><path d="m32.316406 280h32v16h-32zm0 0" fill="#cdcdcd"/><g fill="#d9d9d9"><path d="m304.316406 280h16v16h-16zm0 0"/><path d="m336.316406 280h32v16h-32zm0 0"/></g></svg>