<svg height="464pt" viewBox="0 -11 464 463" width="464pt" xmlns="http://www.w3.org/2000/svg"><path d="m328 280.5h-192v-24c0-17.671875 14.328125-32 32-32h128c17.671875 0 32 14.328125 32 32zm0 0" fill="#ffb1b5"/><path d="m136 32.5h48c17.671875 0 32 14.328125 32 32v48c0 17.671875-14.328125 32-32 32h-48c-17.671875 0-32-14.328125-32-32v-48c0-17.671875 14.328125-32 32-32zm0 0" fill="#ebebeb"/><path d="m184 152.5h-48c-22.082031-.027344-39.972656-17.917969-40-40v-48c.027344-22.082031 17.917969-39.972656 40-40h48c22.082031.027344 39.972656 17.917969 40 40v48c-.027344 22.082031-17.917969 39.972656-40 40zm-48-112c-13.253906 0-24 10.746094-24 24v48c0 13.253906 10.746094 24 24 24h48c13.253906 0 24-10.746094 24-24v-48c0-13.253906-10.746094-24-24-24zm0 0" fill="#55785f"/><path d="m136 64.5h48v48h-48zm0 0" fill="#8dc79d"/><path d="m283.753906 344.5h-103.507812c-9.183594 0-17.925782-3.945312-24-10.832031-6.074219-6.890625-8.898438-16.054688-7.75-25.167969l1.75-14.015625c1.015625-7.996094 7.820312-13.988281 15.882812-13.984375h131.742188c8.070312 0 14.878906 6.007812 15.882812 14.015625l1.75 14.015625c1.136719 9.109375-1.6875 18.265625-7.761718 25.144531-6.074219 6.882813-14.8125 10.824219-23.988282 10.824219zm0 0" fill="#ebebeb"/><g fill="#eea5a9"><path d="m182.785156 224.5-32 56h18.429688l31.992187-56zm0 0"/><path d="m222.785156 224.5-32 56h18.421875l32-56zm0 0"/><path d="m262.785156 224.5-31.992187 56h18.421875l31.992187-56zm0 0"/><path d="m302.398438 225.148438-31.605469 55.351562h18.398437l27.527344-48.183594c-4.082031-3.574218-9.011719-6.042968-14.320312-7.167968zm0 0"/></g><path d="m360 280.5h96v64h-96zm0 0" fill="#55785f"/><path d="m8 280.5h96v64h-96zm0 0" fill="#55785f"/><path d="m48 248.5h16c17.671875 0 32 14.328125 32 32h-80c0-17.671875 14.328125-32 32-32zm0 0" fill="#f7ba61"/><path d="m0 344.5v24c24.8125 14.890625 39.996094 41.707031 40 70.648438v1.351562h48c0-26.507812 21.492188-48 48-48h192c26.507812 0 48 21.492188 48 48h48v-1.351562c.003906-28.941407 15.1875-55.757813 40-70.648438v-24zm0 0" fill="#f55648"/><path d="m8 304.5h40v16h-40zm0 0" fill="#486650"/><path d="m64 304.5h16v16h-16zm0 0" fill="#486650"/><path d="m368 248.5h40v32h-40zm0 0" fill="#aac16b"/><path d="m368 264.5h40v16h-40zm0 0" fill="#89b140"/><path d="m408 232.5h40v48h-40zm0 0" fill="#85bc94"/><path d="m408 264.5h40v16h-40zm0 0" fill="#6b9777"/><path d="m416 304.5h40v16h-40zm0 0" fill="#486650"/><path d="m384 304.5h16v16h-16zm0 0" fill="#486650"/><path d="m184 304.5h16v16h-16zm0 0" fill="#dbdbdb"/><path d="m224 296.5h16v16h-16zm0 0" fill="#dbdbdb"/><path d="m272 304.5h16v16h-16zm0 0" fill="#dbdbdb"/><path d="m88 400.5h21.488281c7.851563-5.226562 17.078125-8.011719 26.511719-8h8v-8h-56zm0 0" fill="#c7463b"/><path d="m56 384.5h16v16h-16zm0 0" fill="#c7463b"/><path d="m320 392.5h8c9.433594-.011719 18.660156 2.773438 26.511719 8h21.488281v-16h-56zm0 0" fill="#c7463b"/><path d="m392 384.5h16v16h-16zm0 0" fill="#c7463b"/><path d="m464 32.5h-392v-24l392-8zm0 0" fill="#cd9c7a"/><path d="m464 176.5-392-8v-24h392zm0 0" fill="#b08668"/><path d="m72 24.5h392v8h-392zm0 0" fill="#bd9070"/><path d="m72 144.5h392v8h-392zm0 0" fill="#bd9070"/></svg>