<svg height="472pt" viewBox="0 -44 472.01845 472" width="472pt" xmlns="http://www.w3.org/2000/svg"><path d="m293.535156 48.007812c0 13.257813-10.742187 24-24 24-13.253906 0-24-10.742187-24-24 0-13.253906 10.746094-24 24-24 13.257813 0 24 10.746094 24 24zm0 0" fill="#eea5a9"/><path d="m269.535156 64.007812c-37.066406-.019531-72.699218 14.316407-99.421875 40h198.855469c-26.726562-25.683593-62.363281-40.019531-99.433594-40zm0 0" fill="#ffb1b5"/><path d="m462.113281 126.082031c-13.261719-14.648437-35.5-16.78125-51.304687-4.921875l-17.710938 13.25c-6.648437-11.167968-14.765625-21.390625-24.128906-30.402344h-198.855469c-24.921875 23.75-40.484375 55.660157-43.839843 89.921876l-10.464844-5.726563c-14.1875-7.769531-24.4375-21.15625-28.238282-36.875l-4.570312-23.757813c-1.742188-9.03125-9.648438-15.558593-18.847656-15.5625h-32.152344l17.496094 24 3.914062 54.570313c1.625 25.988281 15.746094 49.574219 37.886719 63.277344l61.128906 37.824219c13.367188 18.628906 30.957031 33.820312 51.335938 44.328124h131.550781c30.199219-15.5625 53.949219-41.269531 67.089844-72.597656l49.0625-35.03125c8.957031-6.40625 14.71875-16.359375 15.816406-27.3125l4.550781-45.511718c1.0625-10.757813-2.464843-21.460938-9.71875-29.472657zm-26.695312 71.800781c-.1875 1.789063-1.125 3.410157-2.585938 4.460938l-19.589843 13.992188c.160156-2.757813.292968-5.527344.292968-8.328126.011719-14.863281-2.289062-29.636718-6.824218-43.789062l23.304687-17.464844c1.0625-.765625 2.339844-1.167968 3.648437-1.144531 1.777344-.035156 3.492188.667969 4.726563 1.945313 1.199219 1.292968 1.785156 3.042968 1.601563 4.796874zm0 0" fill="#ebebeb"/><path d="m203.761719 336.007812h7.910156c.039063-2.976562-1.601563-5.726562-4.238281-7.109374-33.273438-17.144532-58.058594-47.1875-68.570313-83.113282-.765625-2.777344-2.96875-4.929687-5.761719-5.632812-2.796874-.699219-5.753906.15625-7.742187 2.242187-1.988281 2.085938-2.699219 5.082031-1.863281 7.839844 3.277344 11.140625 7.84375 21.863281 13.601562 31.949219l15.34375 9.496094c13.359375 18.625 30.949219 33.816406 51.320313 44.328124zm0 0" fill="#e4e4e2"/><path d="m320 302.359375c-3.613281.003906-6.777344-2.414063-7.726562-5.902344-.945313-3.484375.5625-7.175781 3.679687-9 28.171875-16.5625 45.503906-46.769531 45.582031-79.449219 0-4.417968 3.582032-8 8-8 4.417969 0 8 3.582032 8 8-.089844 38.359376-20.429687 73.816407-53.496094 93.257813-1.222656.71875-2.617187 1.097656-4.039062 1.09375zm0 0" fill="#f5f5f5"/><path d="m364.304688 184.007812c-3.433594 0-6.480469-2.191406-7.578126-5.445312-1.714843-5.085938-3.875-10.003906-6.460937-14.707031-2.125-3.875-.707031-8.738281 3.167969-10.863281s8.738281-.707032 10.863281 3.167968c3.035156 5.53125 5.574219 11.320313 7.582031 17.296875.824219 2.441407.417969 5.125-1.082031 7.21875-1.5 2.089844-3.917969 3.332031-6.492187 3.332031zm0 0" fill="#f5f5f5"/><path d="m410.199219 239.953125c-4.246094-1.214844-8.671875 1.242187-9.886719 5.488281-10.449219 36.070313-35.28125 66.25-68.664062 83.457032-2.640626 1.382812-4.277344 4.132812-4.238282 7.109374h7.902344c30.199219-15.5625 53.949219-41.269531 67.089844-72.597656l11.429687-8.199218c.601563-1.808594 1.328125-3.5625 1.855469-5.394532 1.199219-4.238281-1.253906-8.644531-5.488281-9.863281zm0 0" fill="#e4e4e2"/><g fill="#fbd699"><path d="m72 88.007812h-16c.113281-6.375-2.203125-12.558593-6.472656-17.292968-12.703125-15.539063-12.703125-37.875 0-53.410156 4.269531-4.738282 6.585937-10.917969 6.472656-17.2968755h16c.113281 9.7539065-3.265625 19.2265625-9.527344 26.7070315-8.632812 9.914062-8.632812 24.675781 0 34.589844 6.261719 7.480468 9.640625 16.953124 9.527344 26.703124zm0 0"/><path d="m112 88.007812h-16c.113281-6.375-2.203125-12.558593-6.472656-17.292968-12.703125-15.539063-12.703125-37.875 0-53.410156 4.269531-4.738282 6.585937-10.917969 6.472656-17.2968755h16c.113281 9.7539065-3.265625 19.2265625-9.527344 26.7070315-8.632812 9.914062-8.632812 24.675781 0 34.589844 6.261719 7.480468 9.640625 16.953124 9.527344 26.703124zm0 0"/><path d="m32 88.007812h-16c.113281-6.375-2.203125-12.558593-6.472656-17.292968-12.703125-15.539063-12.703125-37.875 0-53.410156 4.269531-4.738282 6.585937-10.917969 6.472656-17.2968755h16c.113281 9.7539065-3.265625 19.2265625-9.527344 26.7070315-8.632812 9.914062-8.632812 24.675781 0 34.589844 6.261719 7.480468 9.640625 16.953124 9.527344 26.703124zm0 0"/></g><path d="m400 384.007812h-264c-17.671875 0-32-14.324218-32-32v-16h328v16c0 17.675782-14.328125 32-32 32zm0 0" fill="#ffb1b5"/><path d="m207.433594 328.898438h127.238281v7.109374h-127.238281zm0 0" fill="#e4e4e2"/></svg>