<svg height="480pt" viewBox="-56 0 480 480" width="480pt" xmlns="http://www.w3.org/2000/svg"><path d="m16 296h64v112h-64zm0 0" fill="#6cbae5"/><path d="m88 136c0 22.089844-17.910156 40-40 40s-40-17.910156-40-40 17.910156-40 40-40 40 17.910156 40 40zm0 0" fill="#fdc9a6"/><path d="m48 176c26.507812 0 48 21.492188 48 48v72h-96v-72c0-26.507812 21.492188-48 48-48zm0 0" fill="#6cbae5"/><path d="m344 136c0 22.089844-17.910156 40-40 40s-40-17.910156-40-40 17.910156-40 40-40 40 17.910156 40 40zm0 0" fill="#fdc9a6"/><path d="m272 296h64v112h-64zm0 0" fill="#fdc9a6"/><path d="m168 0h16v480h-16zm0 0" fill="#878787"/><path d="m18.320312 186.320312 29.679688 29.679688 24-24 6.398438-5.128906c-17.40625-14.285156-42.417969-14.515625-60.085938-.550782zm0 0" fill="#ebebeb"/><path d="m304 296h32v112h-32zm0 0" fill="#fdc9a6"/><path d="m304 296h8v112h-8zm0 0" fill="#f6bb92"/><path d="m40 328h16v80h-16zm0 0" fill="#4799cf"/><path d="m16 296h64v16h-64zm0 0" fill="#4799cf"/><path d="m272 288h64v24h-64zm0 0" fill="#f6bb92"/><path d="m368 296h-128l23.753906-89.078125c4.863282-18.234375 21.375-30.921875 40.246094-30.921875s35.382812 12.6875 40.246094 30.921875zm0 0" fill="#ffb1b5"/><path d="m288 224 16-16 16 16 24.800781-14.894531-.578125-2.183594c-4.863281-18.234375-21.375-30.917969-40.246094-30.917969-18.871093 0-35.382812 12.683594-40.25 30.917969l-1.160156 4.375zm0 0" fill="#ebebeb"/></svg>