<svg height="468pt" viewBox="-4 0 468 468.88506" width="468pt" xmlns="http://www.w3.org/2000/svg"><path d="m280.441406 360.222656h16v100.664063h-16zm0 0" fill="#ebebeb"/><path d="m320.441406 468.886719h-64c-4.417968 0-8-3.582031-8-8 0-4.421875 3.582032-8 8-8h64c4.417969 0 8 3.578125 8 8 0 4.417969-3.582031 8-8 8zm0 0" fill="#ebebeb"/><path d="m406.105469 360.222656h16v100.664063h-16zm0 0" fill="#ebebeb"/><path d="m280.441406 360.222656h16v32h-16zm0 0" fill="#dbdbdb"/><path d="m406.105469 360.222656h16v32h-16zm0 0" fill="#dbdbdb"/><path d="m446.105469 468.886719h-64c-4.417969 0-8-3.582031-8-8 0-4.421875 3.582031-8 8-8h64c4.417969 0 8 3.578125 8 8 0 4.417969-3.582031 8-8 8zm0 0" fill="#ebebeb"/><path d="m288.441406 372.886719c-12.503906 0-24.464844-5.132813-33.082031-14.191407-8.621094-9.0625-13.144531-21.265624-12.515625-33.753906l5.597656-112.054687h80l5.601563 112.054687c.625 12.488282-3.898438 24.691406-12.515625 33.753906-8.621094 9.058594-20.578125 14.191407-33.085938 14.191407zm0 0" fill="#ebebeb"/><path d="m414.105469 372.886719c-12.503907-.003907-24.460938-5.132813-33.078125-14.195313-8.621094-9.0625-13.144532-21.261718-12.519532-33.75l5.597657-112.054687h80l5.601562 112.054687c.625 12.488282-3.898437 24.691406-12.515625 33.753906-8.621094 9.058594-20.578125 14.191407-33.085937 14.191407zm0 0" fill="#ebebeb"/><path d="m284.378906 270.523438c-11.925781-5.945313-25.488281-7.765626-38.558594-5.175782l-2.976562 59.59375c-.835938 16.832032 7.667969 32.75 22.121094 41.417969 14.453125 8.664063 32.503906 8.664063 46.957031 0 14.449219-8.667969 22.953125-24.585937 22.121094-41.417969l-2.578125-51.617187c-15.421875 5.511719-32.425782 4.5-47.085938-2.800781zm0 0" fill="#ff5a4b"/><path d="m284.378906 278.523438c-11.925781-5.945313-25.488281-7.765626-38.558594-5.175782l-2.875 57.378906c1.621094 23.933594 21.507813 42.519532 45.496094 42.519532 23.992188 0 43.878906-18.585938 45.496094-42.519532l-2.472656-49.402343c-15.421875 5.511719-32.425782 4.5-47.085938-2.800781zm0 0" fill="#ee5446"/><path d="m410.042969 270.523438c-11.925781-5.945313-25.488281-7.765626-38.558594-5.175782l-2.984375 59.59375c-.894531 16.867188 7.59375 32.851563 22.070312 41.554688 14.480469 8.703125 32.578126 8.703125 47.054688 0s22.96875-24.6875 22.074219-41.554688l-2.585938-51.617187c-15.417969 5.511719-32.414062 4.5-47.070312-2.800781zm0 0" fill="#ff5a4b"/><path d="m410.042969 278.523438c-11.925781-5.945313-25.488281-7.765626-38.558594-5.175782l-2.875 57.378906c1.648437 23.910157 21.527344 42.460938 45.492187 42.460938 23.96875 0 43.84375-18.550781 45.492188-42.460938l-2.472656-49.402343c-15.417969 5.511719-32.421875 4.5-47.078125-2.800781zm0 0" fill="#ee5446"/><path d="m176.441406 346.332031-86.511718 29.113281-22.289063-2.558593-41.335937-169.355469c-5.164063-21.175781-2.96875-43.480469 6.226562-63.246094l7.398438-15.921875-13.269532-54.398437 46.628906-11.375 13.273438 54.398437 13.878906 10.710938c17.265625 13.3125 29.484375 32.101562 34.648438 53.28125zm0 0" fill="#6f7478"/><path d="m76.335938 206.070312 62.175781-15.171874 11.378906 46.628906-62.175781 15.171875zm0 0" fill="#ebebeb"/><path d="m87.710938 252.695312 62.175781-15.171874 7.585937 31.085937-62.175781 15.171875zm0 0" fill="#dc4d41"/><path d="m87.71875 252.703125 62.175781-15.171875 1.960938 8.035156-62.175781 15.171875zm0 0" fill="#da922a"/><path d="m57.929688 29.398438-31.085938 7.582031-5.6875-23.296875c-1.046875-4.289063 1.582031-8.613282 5.871094-9.664063l15.542968-3.789062c4.292969-1.050781 8.625 1.578125 9.671876 5.871093zm0 0" fill="#bd9070"/><path d="m19.070312 38.882812 46.632813-11.378906c8.582031-2.097656 17.242187 3.164063 19.335937 11.75 2.09375 8.582032-3.167968 17.242188-11.75 19.335938l-46.632812 11.378906c-8.585938 2.09375-17.242188-3.167969-19.335938-11.75-2.097656-8.585938 3.164063-17.242188 11.75-19.335938zm0 0" fill="#6f7478"/><path d="m76.777344 72.886719-3.488282-14.296875-46.628906 11.375 3.488282 14.304687zm0 0" fill="#62666a"/><path d="m86.5625 112.988281-21.414062 13.464844-25.21875-2.089844-11.375-46.628906 46.632812-11.378906zm0 0" fill="#ee5446"/><g fill="#f3af3e"><path d="m184.441406 116.886719h16v16h-16zm0 0"/><path d="m160.441406 140.886719h16v16h-16zm0 0"/><path d="m208.441406 140.886719h16v16h-16zm0 0"/><path d="m184.441406 164.886719h16v16h-16zm0 0"/></g><path d="m344.441406 60.886719h16v16h-16zm0 0" fill="#fbb540"/><path d="m312.441406 92.886719h16v16h-16zm0 0" fill="#fbb540"/><path d="m376.441406 92.886719h16v16h-16zm0 0" fill="#fbb540"/><path d="m344.441406 124.886719h16v16h-16zm0 0" fill="#fbb540"/><path d="m159.21875 275.757812c-2.492188 2.234376-4.535156 4.921876-6.023438 7.917969l-24.703124 50.402344c-4.410157 9.03125-13.566407 14.773437-23.617188 14.816406-10.050781.039063-19.253906-5.628906-23.738281-14.625l-25.390625-50.800781c-2.742188-5.480469-7.304688-9.835938-12.902344-12.320312l24.796875 101.738281 22.296875 2.558593 86.503906-29.113281zm0 0" fill="#62666a"/><path d="m176.441406 460.886719h-136l-40-176h31.671875c10.007813-.007813 19.160157 5.644531 23.632813 14.597656l25.390625 50.800781c4.476562 8.953125 13.625 14.605469 23.632812 14.601563 10.082031 0 19.289063-5.738281 23.722657-14.792969l24.703124-50.402344c4.429688-9.058594 13.632813-14.808594 23.71875-14.804687h31.527344zm0 0" fill="#d9d9d9"/><path d="m80.441406 420.886719h-49.085937l3.632812 16h45.453125zm0 0" fill="#eaeae8"/><path d="m96.441406 420.886719h16v16h-16zm0 0" fill="#eaeae8"/></svg>