<?xml version="1.0" encoding="iso-8859-1"?>
<!-- Generator: Adobe Illustrator 19.0.0, SVG Export Plug-In . SVG Version: 6.00 Build 0)  -->
<svg version="1.1" id="Layer_1" xmlns="http://www.w3.org/2000/svg" xmlns:xlink="http://www.w3.org/1999/xlink" x="0px" y="0px"
	 viewBox="0 0 512 512" style="enable-background:new 0 0 512 512;" xml:space="preserve">
<path style="fill:#501919;" d="M367.304,322.783v77.913c0,12.295-9.966,22.261-22.261,22.261H166.956
	c-12.295,0-22.261-9.966-22.261-22.261v-77.913c0-12.295,9.966-22.261,22.261-22.261h178.087
	C357.338,300.522,367.304,310.488,367.304,322.783z"/>
<path style="fill:#A39B8D;" d="M301.912,500.87V11.13c0-6.147,4.983-11.13,11.13-11.13l0,0c6.147,0,11.13,4.983,11.13,11.13V500.87
	c0,6.147-4.983,11.13-11.13,11.13l0,0C306.896,512,301.912,507.017,301.912,500.87z"/>
<path style="fill:#C6C0B6;" d="M340.869,211.478h-55.652c-12.295,0-22.261-9.966-22.261-22.261V5.565
	c0-3.073,2.492-5.565,5.565-5.565h89.043c3.073,0,5.565,2.492,5.565,5.565v183.652C363.13,201.512,353.164,211.478,340.869,211.478z
	"/>
<path style="fill:#676459;" d="M285.217,166.957L285.217,166.957c-3.073,0-5.565-2.492-5.565-5.565V0h11.13v161.391
	C290.782,164.464,288.29,166.957,285.217,166.957z M346.434,161.391V0h-11.13v161.391c0,3.073,2.492,5.565,5.565,5.565l0,0
	C343.942,166.957,346.434,164.464,346.434,161.391z M318.608,161.391V0h-11.13v161.391c0,3.073,2.492,5.565,5.565,5.565l0,0
	C316.116,166.957,318.608,164.464,318.608,161.391z"/>
<path style="fill:#A39B8D;" d="M193.391,500.87V33.391c0-6.147,4.983-11.13,11.13-11.13l0,0c6.147,0,11.13,4.983,11.13,11.13V500.87
	c0,6.147-4.983,11.13-11.13,11.13l0,0C198.374,512,193.391,507.017,193.391,500.87z"/>
<path style="fill:#C6C0B6;" d="M215.652,256l-66.783-44.522l30.992-196.281C181.243,6.446,188.786,0,197.646,0l0,0
	c9.944,0,18.006,8.062,18.006,18.006V256z"/>
<path style="fill:#E5DFD7;" d="M166.359,100.704l49.292,32.862v66.783l-58.832-39.221L166.359,100.704z"/>
<path style="fill:#92393C;" d="M367.304,434.087c0,12.295-9.966,22.261-22.261,22.261H166.956c-12.295,0-22.261-9.966-22.261-22.261
	V322.783l0.001,0.001c7.127,7.126,16.791,11.129,26.87,11.129h168.868c10.079,0,19.744-4.004,26.871-11.13l0,0v111.304H367.304z"/>
<g>
</g>
<g>
</g>
<g>
</g>
<g>
</g>
<g>
</g>
<g>
</g>
<g>
</g>
<g>
</g>
<g>
</g>
<g>
</g>
<g>
</g>
<g>
</g>
<g>
</g>
<g>
</g>
<g>
</g>
</svg>
