<?xml version="1.0" encoding="iso-8859-1"?>
<!-- Generator: Adobe Illustrator 19.0.0, SVG Export Plug-In . SVG Version: 6.00 Build 0)  -->
<svg version="1.1" id="Layer_1" xmlns="http://www.w3.org/2000/svg" xmlns:xlink="http://www.w3.org/1999/xlink" x="0px" y="0px"
	 viewBox="0 0 512 512" style="enable-background:new 0 0 512 512;" xml:space="preserve">
<path style="fill:#ADA58C;" d="M456.348,500.87L456.348,500.87c0,6.147-4.983,11.13-11.13,11.13H66.783
	c-6.147,0-11.13-4.983-11.13-11.13l0,0c0-6.147,4.983-11.13,11.13-11.13h378.435C451.365,489.739,456.348,494.722,456.348,500.87z"
	/>
<path style="fill:#AA8144;" d="M155.826,428.522v66.783c0,3.073-2.492,5.565-5.565,5.565h-44.522c-3.073,0-5.565-2.492-5.565-5.565
	v-66.783c0-3.073,2.492-5.565,5.565-5.565h44.522C153.334,422.957,155.826,425.449,155.826,428.522z M406.261,422.957h-44.522
	c-3.073,0-5.565,2.492-5.565,5.565v66.783c0,3.073,2.492,5.565,5.565,5.565h44.522c3.073,0,5.565-2.492,5.565-5.565v-66.783
	C411.826,425.449,409.334,422.957,406.261,422.957z"/>
<path style="fill:#323030;" d="M411.826,11.13v422.957H100.174V11.13c0-6.147,4.983-11.13,11.13-11.13h289.391
	C406.843,0,411.826,4.983,411.826,11.13z"/>
<path style="fill:#403E3E;" d="M411.826,300.522H211.478c-24.588,0-44.522-19.934-44.522-44.522l0,0
	c0-3.843,0.488-7.573,1.402-11.13h-68.185v-89.043h72.754c-3.791-6.55-5.971-14.149-5.971-22.261l0,0
	c0-24.588,19.933-44.522,44.522-44.522h200.348v89.043h-72.754c3.791,6.55,5.971,14.149,5.971,22.261l0,0
	c0,3.843-0.487,7.573-1.402,11.13h68.185V300.522z"/>
<path style="fill:#504E4D;" d="M411.826,378.435H211.478c-24.588,0-44.522-19.933-44.522-44.522l0,0
	c0-3.843,0.488-7.573,1.402-11.13h-68.185v-89.043h72.754c-3.791-6.55-5.971-14.149-5.971-22.261l0,0
	c0-24.588,19.933-44.522,44.522-44.522h200.348V256h-72.754c3.791,6.55,5.971,14.149,5.971,22.261l0,0
	c0,3.843-0.487,7.573-1.402,11.13h68.185V378.435z"/>
<path style="fill:#E5DFD7;" d="M307.744,73.098c0-21.424-22.728-38.205-51.744-38.205s-51.744,16.782-51.744,38.205
	c0,21.424,22.728,38.206,51.744,38.206S307.744,94.522,307.744,73.098z M256,89.043c-16.875,0-29.483-8.418-29.483-15.945
	c0-7.526,12.609-15.944,29.483-15.944s29.483,8.418,29.483,15.944C285.483,80.626,272.875,89.043,256,89.043z M233.739,200.348
	c0,6.147-4.983,11.13-11.13,11.13h-56.549c-6.147,0-11.13-4.983-11.13-11.13c0-6.147,4.983-11.13,11.13-11.13h56.549
	C228.756,189.217,233.739,194.2,233.739,200.348z M233.739,233.739c0,6.147-4.983,11.13-11.13,11.13h-56.549
	c-6.147,0-11.13-4.983-11.13-11.13s4.983-11.13,11.13-11.13h56.549C228.756,222.609,233.739,227.592,233.739,233.739z
	 M206.606,267.13c0,6.147-4.983,11.13-11.13,11.13h-29.417c-6.147,0-11.13-4.983-11.13-11.13s4.983-11.13,11.13-11.13h29.417
	C201.623,256,206.606,260.983,206.606,267.13z M289.391,256h56.549c6.147,0,11.13,4.983,11.13,11.13s-4.983,11.13-11.13,11.13
	h-56.549c-6.147,0-11.13-4.983-11.13-11.13S283.244,256,289.391,256z M357.071,300.522c0,6.147-4.983,11.13-11.13,11.13h-56.549
	c-6.147,0-11.13-4.983-11.13-11.13s4.983-11.13,11.13-11.13h56.549C352.088,289.391,357.071,294.374,357.071,300.522z
	 M329.938,333.913c0,6.147-4.983,11.13-11.13,11.13h-29.417c-6.147,0-11.13-4.983-11.13-11.13s4.983-11.13,11.13-11.13h29.417
	C324.955,322.783,329.938,327.766,329.938,333.913z"/>
<g>
</g>
<g>
</g>
<g>
</g>
<g>
</g>
<g>
</g>
<g>
</g>
<g>
</g>
<g>
</g>
<g>
</g>
<g>
</g>
<g>
</g>
<g>
</g>
<g>
</g>
<g>
</g>
<g>
</g>
</svg>
