<?xml version="1.0" encoding="iso-8859-1"?>
<!-- Generator: Adobe Illustrator 19.0.0, SVG Export Plug-In . SVG Version: 6.00 Build 0)  -->
<svg version="1.1" id="Layer_1" xmlns="http://www.w3.org/2000/svg" xmlns:xlink="http://www.w3.org/1999/xlink" x="0px" y="0px"
	 viewBox="0 0 512.001 512.001" style="enable-background:new 0 0 512.001 512.001;" xml:space="preserve">
<path style="fill:#AA8144;" d="M443.779,489.736h-21.683v-23.58c0-78.414-55.1-144.254-128.777-161.158v-14.098
	c0-20.487-16.74-37.153-37.317-37.153c-20.576,0-37.316,16.667-37.316,37.153v14.098c-73.675,16.905-128.775,82.745-128.775,161.159
	v23.58H68.223c-6.174,0-11.179,4.983-11.179,11.13s5.005,11.13,11.179,11.13h32.8c0.022,0,0.043,0.003,0.065,0.003
	c0.022,0,0.043-0.003,0.065-0.003H410.85c0.022,0,0.043,0.003,0.065,0.003c0.022,0,0.043-0.003,0.065-0.003h32.798
	c6.174,0,11.179-4.983,11.179-11.13S449.953,489.736,443.779,489.736z M241.043,301.466v-10.565c0-8.211,6.711-14.893,14.958-14.893
	c8.248,0,14.958,6.681,14.958,14.893v10.565c-4.93-0.441-9.916-0.678-14.959-0.678C250.958,300.788,245.972,301.026,241.043,301.466
	z"/>
<path style="fill:#C6984F;" d="M123.693,366.31c30.359-39.784,78.368-65.523,132.307-65.523c53.941,0,101.951,25.739,132.311,65.524
	c-30.361,39.784-78.369,65.523-132.311,65.523C202.061,431.834,154.052,406.095,123.693,366.31z M443.778,489.739H68.223
	c-6.174,0-11.179,4.983-11.179,11.13c0,6.147,5.005,11.13,11.179,11.13h375.554c6.174,0,11.179-4.983,11.179-11.13
	C454.957,494.722,449.952,489.739,443.778,489.739z"/>
<path style="fill:#E3D7B1;" d="M250.824,345.09c0,6.147-5.005,11.13-11.179,11.13c-47.183,0-88.26,37.974-95.547,88.33
	c-0.802,5.545-5.583,9.544-11.05,9.544c-0.531,0-1.067-0.038-1.608-0.116c-6.111-0.877-10.351-6.52-9.471-12.604
	c4.256-29.408,18.32-56.472,39.6-76.209c21.699-20.124,49.427-31.208,78.078-31.208C245.818,333.96,250.824,338.943,250.824,345.09z
	"/>
<path style="fill:#9EA3AA;" d="M348.9,233.235c3.587,6.469,1.219,14.639-5.28,18.21c-1.989,1.093-4.235,1.671-6.496,1.671
	c-4.906,0-9.425-2.655-11.795-6.928c-12.741-22.983-39.955-37.835-69.331-37.835c-29.378,0-56.594,14.851-69.335,37.835
	c-1.736,3.134-4.596,5.407-8.05,6.4c-1.238,0.355-2.499,0.532-3.753,0.532c-2.245,0-4.467-0.565-6.487-1.675
	c-6.499-3.572-8.868-11.741-5.28-18.21c17.674-31.881,53.274-51.686,92.906-51.686C295.627,181.549,331.226,201.354,348.9,233.235z
	 M350.578,110.104c-29.442-13.47-61.263-20.3-94.58-20.3c-33.318,0-65.14,6.83-94.583,20.3
	c-28.219,12.91-53.149,31.766-72.094,54.531c-2.294,2.757-3.373,6.237-3.037,9.803c0.335,3.565,2.046,6.785,4.814,9.07
	c5.714,4.714,14.217,3.921,18.954-1.769c33.938-40.781,88.497-65.128,145.946-65.128c57.445,0,112.003,24.347,145.944,65.128
	c2.567,3.083,6.347,4.852,10.37,4.852l0,0c3.127,0,6.174-1.096,8.583-3.083c2.769-2.284,4.479-5.505,4.815-9.07
	c0.336-3.565-0.743-7.046-3.038-9.803C403.726,141.871,378.797,123.015,350.578,110.104z M494.52,100.117
	C435.559,36.491,348.621,0,255.998,0C163.378,0,76.44,36.491,17.475,100.118c-5.033,5.431-4.69,13.926,0.765,18.938
	c2.493,2.291,5.734,3.552,9.126,3.552c3.748,0,7.355-1.572,9.896-4.314c53.884-58.143,133.609-91.49,218.736-91.49
	c85.13,0,164.855,33.346,218.734,91.489c5.032,5.432,13.566,5.773,19.022,0.761c2.642-2.428,4.177-5.734,4.322-9.311
	C498.221,106.167,496.958,102.748,494.52,100.117z"/>
<g>
</g>
<g>
</g>
<g>
</g>
<g>
</g>
<g>
</g>
<g>
</g>
<g>
</g>
<g>
</g>
<g>
</g>
<g>
</g>
<g>
</g>
<g>
</g>
<g>
</g>
<g>
</g>
<g>
</g>
</svg>
