<?xml version="1.0" encoding="iso-8859-1"?>
<!-- Generator: Adobe Illustrator 19.0.0, SVG Export Plug-In . SVG Version: 6.00 Build 0)  -->
<svg version="1.1" id="Layer_1" xmlns="http://www.w3.org/2000/svg" xmlns:xlink="http://www.w3.org/1999/xlink" x="0px" y="0px"
	 viewBox="0 0 512.004 512.004" style="enable-background:new 0 0 512.004 512.004;" xml:space="preserve">
<path style="fill:#323030;" d="M461.915,501.33c0,5.891-4.739,10.667-10.585,10.667h-32.467c-0.032,0-0.066,0.006-0.098,0.006
	c-0.04,0-0.079-0.004-0.119-0.006H386.22c-5.846,0-10.585-4.776-10.585-10.667c0-5.891,4.739-10.666,10.585-10.666h19.455
	l-12.733-59.758c-36.968,32.383-85.12,51.705-136.939,51.705c-51.82,0-99.974-19.322-136.941-51.705l-12.733,59.759h19.455
	c5.846,0,10.585,4.776,10.585,10.666c0,5.891-4.739,10.667-10.585,10.667H93.359c-0.04,0-0.079,0.006-0.119,0.006
	c-0.032,0-0.066-0.004-0.098-0.006H60.674c-5.846,0-10.585-4.776-10.585-10.667s4.739-10.666,10.585-10.666h24.002l16.495-77.417
	c-24.799-27.599-42.525-62.001-49.962-100.542c-0.603-3.128,0.211-6.362,2.223-8.821c2.01-2.459,5.006-3.882,8.168-3.882h388.807
	c3.161,0,6.157,1.424,8.168,3.882c2.011,2.459,2.826,5.693,2.223,8.821c-7.437,38.541-25.165,72.943-49.965,100.543l16.496,77.414
	h24.002C457.176,490.663,461.915,495.439,461.915,501.33z"/>
<path style="fill:#D19B3F;" d="M51.263,312.988c-0.412-2.121-0.292-4.346,0.529-6.347c1.691-4.12,5.602-6.639,9.807-6.639h52.927
	c-6.508-15.432-15.718-37.429-16.697-40.204c-5.162-14.63-7.78-29.889-7.78-45.351c0-4.07,2.306-7.86,6.094-9.662
	c2.267-1.079,4.874-1.221,7.313-0.624c5.872,1.438,11.484,2.626,16.864,3.577c12.171-28.053,31.718-99.868,34.036-143.886
	c0.003-0.057,0.007-0.114,0.01-0.169c0.51-7.469,9.765-10.719,15.038-5.406c12.226,12.318,46.43,48.425,64.056,63.4
	c2.725-12.839,4.962-27.392,6.737-43.759h-0.128c2.217-20.637,3.725-44.031,4.55-69.931c0.001-0.058,0.004-0.115,0.007-0.173
	c0.363-7.639,10.177-10.612,14.937-4.627c9.868,12.405,35.13,44.747,61.873,74.731h-0.492c12.553,14.2,25.952,27.055,38.655,39.235
	c33.458,32.082,62.353,59.79,62.353,97.298c0,16.37-2.925,32.475-8.693,47.87c-0.855,2.28-10.257,23.515-16.549,37.683h53.695
	c4.205,0,8.116,2.519,9.807,6.64c0.82,1.999,0.941,4.224,0.529,6.347c-0.641,3.3-1.386,6.559-2.176,9.797H53.44
	C52.65,319.547,51.906,316.288,51.263,312.988z"/>
<path style="fill:#E9B84C;" d="M421.953,214.448c0,16.37-2.925,32.475-8.693,47.87c-1.289,3.437-22.014,49.978-22.203,50.393
	c-1.709,3.76-5.419,6.185-9.523,6.224l-250.864,2.4c-0.033,0-0.067,0-0.101,0c-4.136,0-7.897-2.429-9.622-6.223
	c-1.178-2.589-21.631-51.103-23.118-55.315c-5.162-14.63-7.78-29.889-7.78-45.352c0-3.275,1.493-6.368,4.048-8.39
	c2.556-2.022,5.894-2.75,9.048-1.972c42.823,10.537,72.252,8.189,92.613-7.397c15.456-11.831,26.8-32.175,34.678-62.196
	c7.832-29.847,12.472-72.805,14.181-126.507c0.002-0.058,0.004-0.115,0.007-0.173C244.986,0.17,254.8-2.803,259.56,3.182
	c14.628,18.387,63.072,80.574,100.037,113.966C393.998,148.223,421.953,176.94,421.953,214.448z"/>
<path style="fill:#F5D470;" d="M319.667,159.479c3.77-4.503,10.448-5.074,14.916-1.277c21.389,18.18,41.184,38.566,41.184,64.401
	c0,16.305-4.105,32.141-12.201,47.067c-1.923,3.545-5.553,5.553-9.297,5.553c-1.716,0-3.456-0.422-5.068-1.309
	c-5.13-2.826-7.016-9.307-4.212-14.476c6.375-11.754,9.608-24.146,9.608-36.835c0-17.121-16.179-33.232-33.662-48.092
	C316.465,170.712,315.898,163.982,319.667,159.479z"/>
<path style="fill:#92462D;" d="M460.795,312.705c-6.482,33.589-20.784,64.033-40.766,89.572c-2.54-1.008-5.301-1.579-8.201-1.579
	c-12.295,0-22.261,9.966-22.261,22.261v10.839c-36.501,30.637-83.309,48.811-133.565,48.811c-50.257,0-97.065-18.175-133.565-48.811
	v-10.839c0-12.295-9.966-22.261-22.261-22.261c-2.899,0-5.661,0.571-8.201,1.579c-19.982-25.54-34.284-55.983-40.766-89.573
	c-0.603-3.128,0.211-6.362,2.223-8.821c2.01-2.459,5.006-3.882,8.168-3.882h388.807c3.161,0,6.157,1.424,8.168,3.882
	C460.584,306.343,461.4,309.577,460.795,312.705z"/>
<path style="fill:#501919;" d="M451.991,344.567c0.366-1.01,0.73-2.019,1.082-3.036c-0.347,1.006-0.697,2.012-1.059,3.012
	C452.007,344.55,451.999,344.558,451.991,344.567z M298.342,412.639c-79.037,0-149.552-44.939-184.835-112.638H61.599
	c-3.162,0-6.157,1.424-8.168,3.882c-2.011,2.459-2.826,5.693-2.223,8.821c18.997,98.449,105.126,169.904,204.793,169.904
	c88.55,0,166.398-56.415,195.988-138.043C413.493,386.703,358.379,412.639,298.342,412.639z"/>
<path style="fill:#A04C33;" d="M203.852,428.081c-1.585,4.297-5.626,6.954-9.924,6.954c-1.225,0-2.471-0.216-3.686-0.671
	c-42.784-16.026-78.375-47.165-100.216-87.682c-2.79-5.177-0.888-11.652,4.248-14.465c5.137-2.81,11.565-0.895,14.354,4.282
	c19.399,35.985,51.002,63.639,88.989,77.867C203.097,416.418,205.888,422.559,203.852,428.081z"/>
<g>
</g>
<g>
</g>
<g>
</g>
<g>
</g>
<g>
</g>
<g>
</g>
<g>
</g>
<g>
</g>
<g>
</g>
<g>
</g>
<g>
</g>
<g>
</g>
<g>
</g>
<g>
</g>
<g>
</g>
</svg>
