<?xml version="1.0" encoding="iso-8859-1"?>
<!-- Generator: Adobe Illustrator 19.0.0, SVG Export Plug-In . SVG Version: 6.00 Build 0)  -->
<svg version="1.1" id="Layer_1" xmlns="http://www.w3.org/2000/svg" xmlns:xlink="http://www.w3.org/1999/xlink" x="0px" y="0px"
	 viewBox="0 0 512.002 512.002" style="enable-background:new 0 0 512.002 512.002;" xml:space="preserve">
<path style="fill:#E3D7B1;" d="M379.171,209.241v13.139H124.863l-2.43-13.139c-15.019-93.281,138.229-14.86,147.482-114.401
	C334.599,94.84,377.491,156.438,379.171,209.241z"/>
<path style="fill:#C4B899;" d="M379.171,222.381H177.218l-0.237-1.28c-14.798-91.905,133.741-17.141,146.976-110.112
	c33.577,21.8,54.063,62.087,55.214,98.253v13.139H379.171z"/>
<path style="fill:#9A7F50;" d="M405.33,222.541l-55.79,280.523c-1.034,5.197-5.572,8.939-10.842,8.939h-87.946h-4.263h-87.946
	c-5.27,0-9.808-3.741-10.842-8.939l-55.79-280.523c-1.368-6.881,3.864-13.3,10.842-13.3h143.736h4.263h143.736
	C401.466,209.241,406.698,215.66,405.33,222.541z"/>
<path style="fill:#6E5840;" d="M485.978,254.675c-3.162-3.88-7.838-6.105-12.826-6.105h-72.998l5.177-26.03
	c1.368-6.881-3.864-13.3-10.842-13.3H250.752h-4.263h-62.202l45.972,231.158c2.395,12.043-5.372,23.759-17.348,26.168
	c-1.464,0.294-2.923,0.436-4.361,0.436c-10.326,0-19.558-7.309-21.661-17.881l-47.47-238.693c-0.079-0.397-0.118-0.791-0.175-1.188
	h-36.491c-6.978,0-12.21,6.419-10.842,13.3l55.79,280.523c1.034,5.197,5.572,8.939,10.842,8.939h87.946h4.263h87.946
	c5.27,0,9.808-3.741,10.842-8.939l6.347-31.91h79.633c7.878,0,14.719-5.639,16.263-13.408l37.633-189.225
	C490.393,263.601,489.141,258.556,485.978,254.675z M421.921,437.797H362.52l30.999-155.868h59.401L421.921,437.797z"/>
<path style="fill:#CEB896;" d="M235.186,53.595c0,17.841-14.434,32.356-32.175,32.356H54.438c-5.549,0-10.062,4.539-10.062,10.119
	c0,5.58,4.515,10.12,10.062,10.12h84.104c7.386,0,14.612,2.6,20.344,7.32c4.725,3.89,5.419,10.896,1.55,15.647
	c-2.186,2.685-5.362,4.075-8.562,4.075c-2.464,0-4.943-0.824-6.998-2.517c-1.268-1.044-3.397-2.288-6.335-2.288H54.438
	c-17.742,0.001-32.176-14.515-32.176-32.357s14.434-32.357,32.176-32.357h148.573c5.547,0,10.061-4.539,10.061-10.119
	c0-5.579-4.513-10.119-10.061-10.119h-92.243c-17.741,0-32.175-14.515-32.175-32.356C78.593,4.979,83.543,0,89.65,0
	s11.057,4.978,11.057,11.119c0,5.579,4.513,10.119,10.061,10.119h92.243C220.752,21.239,235.186,35.753,235.186,53.595z"/>
<g>
</g>
<g>
</g>
<g>
</g>
<g>
</g>
<g>
</g>
<g>
</g>
<g>
</g>
<g>
</g>
<g>
</g>
<g>
</g>
<g>
</g>
<g>
</g>
<g>
</g>
<g>
</g>
<g>
</g>
</svg>
