<?xml version="1.0" encoding="iso-8859-1"?>
<!-- Generator: Adobe Illustrator 19.0.0, SVG Export Plug-In . SVG Version: 6.00 Build 0)  -->
<svg version="1.1" id="Layer_1" xmlns="http://www.w3.org/2000/svg" xmlns:xlink="http://www.w3.org/1999/xlink" x="0px" y="0px"
	 viewBox="0 0 512 512" style="enable-background:new 0 0 512 512;" xml:space="preserve">
<path style="fill:#575048;" d="M435.115,297.979c-1.831,1.136-3.866,1.678-5.875,1.678c-3.726,0-7.368-1.864-9.48-5.258
	L256.509,32.133L91.341,294.45c-3.277,5.205-10.16,6.772-15.373,3.5c-5.213-3.271-6.783-10.142-3.506-15.347L247.123,5.209
	c2.04-3.241,5.606-5.207,9.44-5.207c0.01,0,0.019,0,0.029,0c3.844,0.01,7.412,1.996,9.441,5.256l172.668,277.394
	C441.951,287.873,440.346,294.735,435.115,297.979z"/>
<path style="fill:#ADA58C;" d="M265.911,17.055L91.25,294.45c-2.118,3.364-5.743,5.209-9.45,5.209c-2.028,0-4.079-0.552-5.923-1.709
	c-5.213-3.271-6.783-10.142-3.506-15.347L247.032,5.209c3.278-5.205,10.161-6.772,15.373-3.501S269.187,11.852,265.911,17.055z"/>
<path style="fill:#323030;" d="M512,267.563v233.306c0,6.147-4.983,11.13-11.13,11.13H11.13C4.983,512,0,507.017,0,500.869V267.582
	c0-6.157,4.992-11.149,11.149-11.149h489.72C507.017,256.433,512,261.417,512,267.563z"/>
<path style="fill:#E5DFD7;" d="M103.112,317.099H72.949c-15.232,0-27.625,12.373-27.625,27.579v79.076
	c0,15.207,12.393,27.579,27.625,27.579h30.163c15.233,0,27.627-12.373,27.627-27.579v-79.076
	C130.738,329.471,118.345,317.099,103.112,317.099z M108.44,423.754c0,2.883-2.44,5.318-5.328,5.318H72.949
	c-2.887,0-5.326-2.435-5.326-5.318v-79.076c0-2.883,2.44-5.318,5.326-5.318h30.163c2.888,0,5.328,2.435,5.328,5.318V423.754z
	 M464.463,328.23v111.974c0,5.06-3.419,9.484-8.323,10.766c-0.939,0.246-1.889,0.365-2.827,0.365c-3.955,0-7.706-2.108-9.716-5.673
	l-42.251-74.957v69.498c0,6.147-4.992,11.13-11.149,11.13c-6.157,0-11.149-4.983-11.149-11.13V328.23
	c0-5.06,3.419-9.484,8.323-10.766c4.902-1.284,10.056,0.898,12.543,5.308l42.251,74.957V328.23c0-6.147,4.992-11.13,11.149-11.13
	S464.463,322.082,464.463,328.23z M290.105,339.36v33.726h20.423c6.157,0,11.149,4.983,11.149,11.13s-4.992,11.13-11.149,11.13
	h-20.423v33.726h51.968c6.157,0,11.149,4.983,11.149,11.13c0,6.147-4.992,11.13-11.149,11.13h-63.117
	c-6.157,0-11.149-4.983-11.149-11.13V328.23c0-6.147,4.992-11.13,11.149-11.13h63.117c6.157,0,11.149,4.983,11.149,11.13
	c0,6.147-4.992,11.13-11.149,11.13H290.105z M212.954,317.099h-45.239c-6.157,0-11.149,4.983-11.149,11.13l-0.001,111.974
	c0,6.147,4.992,11.13,11.149,11.13c6.157,0,11.149-4.984,11.149-11.13v-29.437h20.409c23.549,0,42.709-19.127,42.709-42.635v-22.056
	C241.981,330.097,228.96,317.099,212.954,317.099z M219.682,368.132c0,11.234-9.156,20.374-20.41,20.374h-20.409l0.001-49.146
	h34.089c3.646,0,6.727,3.075,6.727,6.716v22.056H219.682z"/>
<g>
</g>
<g>
</g>
<g>
</g>
<g>
</g>
<g>
</g>
<g>
</g>
<g>
</g>
<g>
</g>
<g>
</g>
<g>
</g>
<g>
</g>
<g>
</g>
<g>
</g>
<g>
</g>
<g>
</g>
</svg>
