<?xml version="1.0" encoding="iso-8859-1"?>
<!-- Generator: Adobe Illustrator 19.0.0, SVG Export Plug-In . SVG Version: 6.00 Build 0)  -->
<svg version="1.1" id="Layer_1" xmlns="http://www.w3.org/2000/svg" xmlns:xlink="http://www.w3.org/1999/xlink" x="0px" y="0px"
	 viewBox="0 0 512 512" style="enable-background:new 0 0 512 512;" xml:space="preserve">
<path style="fill:#90724E;" d="M512,467.448v0.012c0,6.147-4.983,11.13-11.13,11.13h-55.652v22.279c0,6.147-4.983,11.13-11.13,11.13
	h-44.522c-6.147,0-11.13-4.983-11.13-11.13v-22.279h-244.87v22.279c0,6.147-4.983,11.13-11.13,11.13H77.913
	c-6.147,0-11.13-4.983-11.13-11.13v-22.279H11.13c-6.147,0-11.13-4.983-11.13-11.13v-0.012c0-6.147,4.983-11.13,11.13-11.13H500.87
	C507.017,456.318,512,461.302,512,467.448z"/>
<path style="fill:#5A482F;" d="M66.783,478.591h66.783v11.136H66.783V478.591z M378.435,478.591v11.136h66.783v-11.136H378.435z"/>
<path style="fill:#C6984F;" d="M148.021,13.251l-42.453,398.514l-17.741-1.553l27.356-399.835
	c0.425-6.219,5.869-10.877,12.074-10.333l10.664,0.934C144.13,1.52,148.681,7.053,148.021,13.251z M37.267,0.043L26.602,0.977
	C20.395,1.52,15.844,7.053,16.504,13.252l42.453,398.514l17.741-1.553L49.341,10.377C48.916,4.158,43.472-0.5,37.267,0.043z"/>
<path style="fill:#98642E;" d="M148.021,13.251l-15.315,143.774l-27.391-2.398l9.869-144.25c0.425-6.219,5.869-10.877,12.074-10.333
	l10.664,0.934C144.13,1.52,148.681,7.053,148.021,13.251z M37.267,0.043L26.602,0.977C20.395,1.52,15.844,7.053,16.504,13.252
	L31.82,157.026l27.391-2.398L49.341,10.377C48.916,4.158,43.472-0.5,37.267,0.043z"/>
<path style="fill:#E5DFD7;" d="M338.264,355.803c0,45.384-36.903,82.306-82.263,82.306c-45.361,0-82.265-36.922-82.265-82.306
	s36.904-82.307,82.265-82.307C301.361,273.496,338.264,310.419,338.264,355.803z M465.3,273.496h-71.129
	c-25.748,0-46.697,20.959-46.697,46.72v71.17c0,25.764,20.949,46.723,46.697,46.723H465.3c25.75,0,46.7-20.96,46.7-46.723v-71.17
	C512,294.454,491.05,273.496,465.3,273.496z M429.735,255.863c45.361,0,82.265-36.923,82.265-82.306
	c0-45.384-36.904-82.307-82.265-82.307c-45.36,0-82.263,36.923-82.263,82.307C347.473,218.94,384.375,255.863,429.735,255.863z
	 M220.436,255.863h71.129c25.748,0,46.697-20.96,46.697-46.723v-71.171c0-25.761-20.949-46.72-46.697-46.72h-71.129
	c-25.75,0-46.7,20.959-46.7,46.72v71.172C173.736,234.903,194.686,255.863,220.436,255.863z M117.826,273.496H46.697
	C20.949,273.496,0,294.454,0,320.216v71.17c0,25.764,20.949,46.723,46.697,46.723h71.129c25.75,0,46.7-20.96,46.7-46.723v-71.17
	C164.526,294.454,143.577,273.496,117.826,273.496z"/>
<path style="fill:#DB6D53;" d="M256.001,273.496c-45.361,0-82.265,36.923-82.265,82.307s36.904,82.306,82.265,82.306
	c45.36,0,82.263-36.922,82.263-82.306S301.361,273.496,256.001,273.496z M256.001,415.837c-33.086,0-60.004-26.931-60.004-60.034
	s26.918-60.034,60.004-60.034c33.085,0,60.002,26.931,60.002,60.034C316.003,388.906,289.086,415.837,256.001,415.837z
	 M429.735,91.249c-45.36,0-82.263,36.923-82.263,82.307s36.903,82.306,82.263,82.306c45.361,0,82.265-36.923,82.265-82.306
	C512,128.172,475.096,91.249,429.735,91.249z M429.735,233.59c-33.085,0-60.002-26.931-60.002-60.034s26.917-60.034,60.002-60.034
	c33.086,0,60.004,26.931,60.004,60.034S462.821,233.59,429.735,233.59z"/>
<path style="fill:#A39B8D;" d="M252.061,370.321c4.345,4.35,4.343,11.401-0.004,15.75c-2.173,2.173-5.021,3.259-7.868,3.259
	c-2.851,0-5.699-1.089-7.873-3.265l-1.768-1.77c-4.345-4.35-4.343-11.401,0.004-15.748c4.348-4.348,11.395-4.346,15.741,0.004
	L252.061,370.321z M290.001,344.765c-4.344-4.351-11.393-4.355-15.741-0.007c-4.349,4.348-4.352,11.398-0.007,15.75l1.768,1.77
	c2.174,2.177,5.024,3.266,7.874,3.266c2.847,0,5.694-1.086,7.867-3.258c4.349-4.348,4.352-11.398,0.007-15.75L290.001,344.765z
	 M246.299,342.004l1.768-1.77c4.345-4.35,4.343-11.401-0.004-15.75c-4.349-4.348-11.395-4.346-15.741,0.004l-1.768,1.77
	c-4.345,4.35-4.343,11.401,0.004,15.75c2.174,2.173,5.021,3.259,7.868,3.259C241.276,345.268,244.125,344.18,246.299,342.004z
	 M435.443,186.303l-1.768,1.77c-4.345,4.35-4.343,11.401,0.004,15.75c2.173,2.173,5.021,3.259,7.868,3.259
	c2.85,0,5.699-1.089,7.873-3.265l1.768-1.77c4.345-4.35,4.343-11.401-0.004-15.75C446.836,181.951,439.789,181.954,435.443,186.303z
	 M395.736,162.518l-1.768,1.77c-4.344,4.351-4.341,11.402,0.007,15.75c2.173,2.173,5.02,3.258,7.867,3.258
	c2.85,0,5.701-1.089,7.874-3.266l1.768-1.77c4.344-4.351,4.341-11.402-0.007-15.75C407.128,158.162,400.08,158.167,395.736,162.518z
	 M455.184,144.012l-1.768-1.77c-4.345-4.351-11.392-4.352-15.741-0.004c-4.348,4.348-4.35,11.399-0.004,15.75l1.768,1.77
	c2.174,2.176,5.023,3.265,7.873,3.265c2.847,0,5.694-1.086,7.868-3.259C459.527,155.413,459.529,148.363,455.184,144.012z"/>
<path style="fill:#403E3E;" d="M465.3,273.496h-71.129c-25.748,0-46.697,20.959-46.697,46.72v71.17
	c0,25.764,20.949,46.723,46.697,46.723H465.3c25.75,0,46.7-20.96,46.7-46.723v-71.17C512,294.454,491.05,273.496,465.3,273.496z
	 M489.739,391.387c0,13.482-10.963,24.45-24.439,24.45h-71.129c-13.473,0-24.436-10.968-24.436-24.45v-71.17
	c0-13.48,10.962-24.447,24.436-24.447H465.3c13.476,0,24.439,10.968,24.439,24.447V391.387z M291.566,91.249h-71.129
	c-25.75,0-46.7,20.959-46.7,46.72v71.171c0,25.762,20.95,46.723,46.7,46.723h71.129c25.748,0,46.697-20.96,46.697-46.723v-71.171
	C338.263,112.208,317.314,91.249,291.566,91.249z M316.002,209.141c0,13.481-10.962,24.45-24.436,24.45h-71.129
	c-13.476,0-24.439-10.968-24.439-24.45v-71.171c0-13.48,10.963-24.447,24.439-24.447h71.129c13.473,0,24.436,10.968,24.436,24.447
	V209.141z M117.826,273.496H46.697C20.949,273.496,0,294.454,0,320.216v71.17c0,25.764,20.949,46.723,46.697,46.723h71.129
	c25.75,0,46.7-20.96,46.7-46.723v-71.17C164.526,294.454,143.577,273.496,117.826,273.496z M142.265,391.387
	c0,13.482-10.963,24.45-24.439,24.45H46.697c-13.473,0-24.436-10.968-24.436-24.45v-71.17c0-13.48,10.962-24.447,24.436-24.447
	h71.129c13.476,0,24.439,10.968,24.439,24.447C142.265,320.217,142.265,391.387,142.265,391.387z"/>
<path style="fill:#FF8E61;" d="M465.289,355.803c0,19.614-15.949,35.572-35.552,35.572c-19.603,0-35.552-15.958-35.552-35.572
	c0-19.615,15.949-35.572,35.552-35.572C449.34,320.231,465.289,336.189,465.289,355.803z M256,137.984
	c-19.604,0-35.552,15.958-35.552,35.572s15.949,35.572,35.552,35.572s35.552-15.958,35.552-35.572S275.604,137.984,256,137.984z
	 M82.263,320.231c-19.604,0-35.552,15.958-35.552,35.572s15.949,35.572,35.552,35.572s35.552-15.958,35.552-35.572
	C117.815,336.189,101.867,320.231,82.263,320.231z"/>
<path style="fill:#DB6D53;" d="M429.736,320.231c-19.604,0-35.552,15.958-35.552,35.572s15.949,35.572,35.552,35.572
	c19.603,0,35.552-15.958,35.552-35.572C465.289,336.189,449.34,320.231,429.736,320.231z M429.736,369.102
	c-7.328,0-13.291-5.966-13.291-13.299c0-7.333,5.963-13.3,13.291-13.3s13.291,5.966,13.291,13.3
	C443.028,363.137,437.065,369.102,429.736,369.102z M256,137.984c-19.604,0-35.552,15.958-35.552,35.572
	s15.949,35.572,35.552,35.572s35.552-15.958,35.552-35.572S275.604,137.984,256,137.984z M256,186.855
	c-7.328,0-13.291-5.966-13.291-13.299c0-7.334,5.963-13.3,13.291-13.3c7.328,0,13.291,5.966,13.291,13.3
	C269.291,180.889,263.329,186.855,256,186.855z M82.263,320.231c-19.604,0-35.552,15.958-35.552,35.572s15.949,35.572,35.552,35.572
	s35.552-15.958,35.552-35.572C117.815,336.189,101.867,320.231,82.263,320.231z M82.263,369.102
	c-7.328,0-13.291-5.966-13.291-13.299c0-7.333,5.963-13.3,13.291-13.3s13.291,5.966,13.291,13.3
	C95.554,363.137,89.591,369.102,82.263,369.102z"/>
<g>
</g>
<g>
</g>
<g>
</g>
<g>
</g>
<g>
</g>
<g>
</g>
<g>
</g>
<g>
</g>
<g>
</g>
<g>
</g>
<g>
</g>
<g>
</g>
<g>
</g>
<g>
</g>
<g>
</g>
</svg>
