<?xml version="1.0" encoding="iso-8859-1"?>
<!-- Generator: Adobe Illustrator 19.0.0, SVG Export Plug-In . SVG Version: 6.00 Build 0)  -->
<svg version="1.1" id="Layer_1" xmlns="http://www.w3.org/2000/svg" xmlns:xlink="http://www.w3.org/1999/xlink" x="0px" y="0px"
	 viewBox="0 0 512 512" style="enable-background:new 0 0 512 512;" xml:space="preserve">
<path style="fill:#ADA58C;" d="M512,500.87L512,500.87c0,6.147-4.983,11.13-11.13,11.13H11.13C4.983,512,0,507.017,0,500.87l0,0
	c0-6.147,4.983-11.13,11.13-11.13H500.87C507.017,489.739,512,494.722,512,500.87z"/>
<path style="fill:#AA8144;" d="M300.522,300.522h189.217v33.391H300.522V300.522z M211.478,300.522H22.261v33.391h189.217V300.522z"
	/>
<path style="fill:#C6984F;" d="M22.261,0h33.391v500.87H22.261V0z M178.087,500.87h33.391V300.522h-33.391V500.87z M456.348,0
	v500.87h33.391V0H456.348z M300.522,500.87h33.391V300.522h-33.391V500.87z"/>
<path style="fill:#6E5840;" d="M166.957,333.913h-22.261h-11.13h-22.261l11.13-33.391h11.13h11.13h11.13L166.957,333.913z
	 M389.565,300.522h-11.13h-11.13h-11.13l-11.13,33.391h22.261h11.13h22.261L389.565,300.522z"/>
<path style="fill:#C6984F;" d="M155.826,500.87h-33.391V200.348h33.391V500.87z M389.565,200.348h-33.391V500.87h33.391V200.348z"/>
<path style="fill:#E3D7B1;" d="M278.261,150.261v55.652c0,3.073-2.492,5.565-5.565,5.565h-33.391c-3.073,0-5.565-2.492-5.565-5.565
	v-55.652c0-3.073,2.492-5.565,5.565-5.565h33.391C275.769,144.696,278.261,147.188,278.261,150.261z"/>
<path style="fill:#AA8144;" d="M411.826,233.739H100.174v-33.391h311.652V233.739z"/>
<path style="fill:#ADA58C;" d="M278.261,150.261v55.652c0,3.073-2.492,5.565-5.565,5.565h-33.391c-3.073,0-5.565-2.492-5.565-5.565
	v-55.652c0-3.073,2.492-5.565,5.565-5.565h5.565v38.957c0,3.073,2.492,5.565,5.565,5.565c3.073,0,5.565-2.492,5.565-5.565v-22.261
	c0,3.073,2.492,5.565,5.565,5.565c3.073,0,5.565-2.492,5.565-5.565v-16.696h5.565C275.769,144.696,278.261,147.188,278.261,150.261z
	"/>
<path style="fill:#D19B3F;" d="M276.597,97.833c5.405,9.333,3.86,21.134-3.767,28.76l0,0c-9.295,9.295-24.366,9.295-33.662,0l0,0
	c-7.627-7.627-9.171-19.427-3.767-28.76L256,62.271L276.597,97.833z"/>
<path style="fill:#E9B84C;" d="M272.83,126.594c-9.295,9.295-24.366,9.295-33.662,0c-4.25-4.25-6.605-9.796-6.928-15.489
	c9.32,6.932,22.544,6.196,31-2.261l0,0c6.36-6.36,8.473-15.619,5.87-23.933l7.484,12.922
	C282.003,107.166,280.457,118.968,272.83,126.594z"/>
<g>
</g>
<g>
</g>
<g>
</g>
<g>
</g>
<g>
</g>
<g>
</g>
<g>
</g>
<g>
</g>
<g>
</g>
<g>
</g>
<g>
</g>
<g>
</g>
<g>
</g>
<g>
</g>
<g>
</g>
</svg>
