<?xml version="1.0" encoding="iso-8859-1"?>
<!-- Generator: Adobe Illustrator 19.0.0, SVG Export Plug-In . SVG Version: 6.00 Build 0)  -->
<svg version="1.1" id="Layer_1" xmlns="http://www.w3.org/2000/svg" xmlns:xlink="http://www.w3.org/1999/xlink" x="0px" y="0px"
	 viewBox="0 0 512 512" style="enable-background:new 0 0 512 512;" xml:space="preserve">
<path style="fill:#B39D7F;" d="M239.304,300.522h-66.783v-66.783h66.783V300.522z"/>
<path style="fill:#DFCBA8;" d="M229.215,244.87h-46.603c-15.65,0-29.201-10.87-32.597-26.148l-4.378-19.7
	c-8.024-36.109-12.072-72.989-12.072-109.979l0,0h144.696l0,0c0,36.99-4.048,73.869-12.072,109.979l-4.378,19.7
	C258.415,234,244.865,244.87,229.215,244.87z"/>
<path style="fill:#A9865F;" d="M161.125,28.665c21.737,5.897,61.035,2.725,85.134,2.725c23.796,0,43.266,19.47,43.266,43.267v0.001
	c0,23.812-19.483,43.265-43.295,43.267c-40.203,0.002-80.955,4.09-112.735-26.254c-19.853-18.957-29.375-46.923-27.533-79.868
	C106.333,5.19,111.787,0,118.411,0l0,0C131.139,15.991,145.861,24.524,161.125,28.665L161.125,28.665z"/>
<path style="fill:#CA9E70;" d="M246.261,31.39c15.669,0,29.461,8.445,37.054,21.006c-7.598,12.565-21.4,21.006-37.083,21.006
	c-40.203,0.002-80.955,4.09-112.735-26.254c-11.916-11.378-20.105-26.003-24.353-42.999C111.429,1.601,114.738,0,118.411,0l0,0
	c12.728,15.991,27.45,24.524,42.715,28.665C182.863,34.562,222.161,31.39,246.261,31.39z"/>
<path style="fill:#D9D3CC;" d="M361.739,311.652V512h-55.652H105.739H50.087V311.652l111.304-44.522h89.043L361.739,311.652z"/>
<path style="fill:#684534;" d="M323.794,296.474l-17.707,70.831V512l-100.174-44.522L105.739,512l0,0V367.304l-17.707-70.83
	l73.36-29.344h11.13l33.391,111.304l33.391-111.304h11.13L323.794,296.474z"/>
<path style="fill:#90724E;" d="M205.913,467.478L105.739,512l0,0V367.304l-17.707-70.83l73.36-29.344h11.13l33.391,111.304v-0.001
	V467.478z"/>
<path style="fill:#1F1D1D;" d="M219.27,395.13v2.226c0,3.073-2.492,5.565-5.565,5.565h-15.583c-3.073,0-5.565-2.492-5.565-5.565
	v-2.226c0-3.073,2.492-5.565,5.565-5.565h15.583C216.777,389.565,219.27,392.057,219.27,395.13z M213.704,442.991h-15.583
	c-3.073,0-5.565,2.492-5.565,5.565v2.226c0,3.073,2.492,5.565,5.565,5.565h15.583c3.073,0,5.565-2.492,5.565-5.565v-2.226
	C219.27,445.483,216.777,442.991,213.704,442.991z M213.704,416.278h-15.583c-3.073,0-5.565,2.492-5.565,5.565v2.226
	c0,3.073,2.492,5.565,5.565,5.565h15.583c3.073,0,5.565-2.492,5.565-5.565v-2.226C219.27,418.77,216.777,416.278,213.704,416.278z"
	/>
<path style="fill:#612324;" d="M244.87,293.101l-38.957,40.812l-38.957-40.812V267.13h77.913V293.101z"/>
<path style="fill:#92393C;" d="M235.13,273.623l-29.217,26.899l-29.217-26.899v-6.492h58.435V273.623z"/>
<path style="fill:#AA8144;" d="M461.913,500.866c0,6.147-4.983,11.13-11.13,11.13h-24.881c-0.022,0-0.042,0.003-0.065,0.003
	s-0.042-0.003-0.065-0.003H268.65c-0.022,0-0.042,0.003-0.065,0.003c-0.022,0-0.042-0.003-0.065-0.003h-24.88
	c-6.147,0-11.13-4.983-11.13-11.13s4.983-11.13,11.13-11.13h13.814v-6.563c0-45.72,34.371-83.539,78.625-89.04v-12.218
	c0-6.147,4.983-11.13,11.13-11.13c6.147,0,11.13,4.983,11.13,11.13v12.218c44.256,5.502,78.626,43.321,78.626,89.04v6.563h13.815
	C456.93,489.736,461.913,494.719,461.913,500.866z"/>
<path style="fill:#D19B3F;" d="M278.268,425.778c16.478-19.759,41.264-32.36,68.942-32.36c27.68,0,52.467,12.601,68.945,32.36
	c-16.477,19.759-41.265,32.359-68.945,32.359C319.53,458.138,294.745,445.538,278.268,425.778z M450.783,489.736H243.641
	c-6.147,0-11.13,4.983-11.13,11.13s4.983,11.13,11.13,11.13h207.142c6.147,0,11.13-4.983,11.13-11.13
	S456.93,489.736,450.783,489.736z"/>
<g>
</g>
<g>
</g>
<g>
</g>
<g>
</g>
<g>
</g>
<g>
</g>
<g>
</g>
<g>
</g>
<g>
</g>
<g>
</g>
<g>
</g>
<g>
</g>
<g>
</g>
<g>
</g>
<g>
</g>
</svg>
